<?xml version="1.0" encoding="UTF-8"?>
<!DOCTYPE svg PUBLIC "-//W3C//DTD SVG 1.1//EN" "http://www.w3.org/Graphics/SVG/1.1/DTD/svg11.dtd">
<!-- Creator: CorelDRAW X7 -->
<svg xmlns="http://www.w3.org/2000/svg" xml:space="preserve" width="279.4mm" height="215.9mm" version="1.1" style="shape-rendering:geometricPrecision; text-rendering:geometricPrecision; image-rendering:optimizeQuality; fill-rule:evenodd; clip-rule:evenodd"
viewBox="0 0 27940 21590"
 xmlns:xlink="http://www.w3.org/1999/xlink">
 <defs>
  <style type="text/css">
   <![CDATA[
    .str0 {stroke:#373435;stroke-width:17.64}
    .fil3 {fill:none}
    .fil5 {fill:#FEFEFE}
    .fil0 {fill:#201E1E}
    .fil1 {fill:black}
    .fil6 {fill:#FEFEFE;fill-rule:nonzero}
    .fil2 {fill:#373435;fill-rule:nonzero}
    .fil4 {fill:#282829;fill-rule:nonzero}
   ]]>
  </style>
 </defs>
 <g id="Layer_x0020_1">
  <metadata id="CorelCorpID_0Corel-Layer"/>
  <polygon class="fil0 str0" points="13555,1799 27802,1799 27802,18798 13555,18798 "/>
  <g id="_1607188093072">
   <g>
    <path class="fil1" d="M7014 6908l1952 4c10,320 -11,662 -14,983 -2,288 -18,691 34,966l293 5c63,-273 32,-2028 15,-2290 -38,-13 -2196,-20 -2275,-1l-5 333z"/>
    <path class="fil1" d="M4077 11779c219,37 1408,17 1716,16 185,0 390,8 572,-6l3 -321 -1955 -12 0 -1944 -331 3 -5 2264z"/>
    <path class="fil1" d="M8947 11453l-1920 4 -16 335 2277 1 0 -2280 -303 1c-46,175 64,1511 -38,1939z"/>
    <path class="fil1" d="M4110 8832l295 -19c12,-102 8,-775 9,-939 2,-159 3,-318 4,-476 1,-65 -11,-446 12,-473 121,-106 1638,3 1926,-30l1 -308 -2227 -2 -20 2247z"/>
    <path class="fil1" d="M7335 7548l962 14 17 966c88,2 261,13 340,-7l0 -1283 -1321 -10 2 320z"/>
    <polygon class="fil1" points="4730,8524 5071,8528 5065,7573 6027,7549 6030,7227 4734,7227 "/>
    <polygon class="fil1" points="8312,10807 7336,10814 7341,11134 8636,11146 8655,9839 8316,9832 "/>
    <polygon class="fil1" points="4733,11118 6036,11129 6030,10813 5071,10812 5070,9842 4737,9831 "/>
    <polygon class="fil1" points="5396,10492 6063,10496 6062,9830 5379,9829 "/>
    <polygon class="fil1" points="7327,8530 7989,8530 7993,7867 7325,7863 "/>
    <polygon class="fil1" points="7327,10495 7990,10496 7993,9833 7327,9829 "/>
    <polygon class="fil1" points="5396,8530 6045,8530 6062,7864 5397,7863 "/>
   </g>
   <path class="fil2" d="M4346 12541l0 -361 74 0 0 300 183 0 0 61 -257 0zm462 -83l70 12c-9,25 -23,45 -43,58 -19,13 -43,20 -72,20 -46,0 -80,-15 -102,-45 -18,-24 -26,-55 -26,-91 0,-44 11,-79 34,-103 23,-25 52,-38 87,-38 39,0 70,13 93,39 22,26 33,66 32,120l-175 0c1,21 7,37 17,48 11,12 24,18 40,18 11,0 21,-3 28,-9 7,-6 13,-16 17,-29zm4 -71c-1,-20 -6,-36 -16,-46 -10,-11 -22,-16 -36,-16 -15,0 -28,5 -38,17 -10,11 -14,26 -14,45l104 0zm178 -29l-63 -11c7,-26 20,-45 37,-57 17,-12 43,-19 78,-19 31,0 54,4 69,11 16,8 26,17 32,29 7,11 10,32 10,62l-1 82c0,23 1,40 3,51 2,11 6,23 13,35l-70 0c-1,-4 -4,-11 -6,-20 -1,-4 -2,-7 -3,-8 -12,12 -24,20 -38,26 -14,6 -28,9 -43,9 -28,0 -49,-7 -65,-22 -15,-15 -23,-34 -23,-56 0,-15 4,-28 11,-40 7,-12 17,-21 30,-27 12,-6 31,-11 55,-16 33,-6 55,-12 68,-17l0 -7c0,-14 -3,-24 -10,-29 -7,-6 -19,-9 -38,-9 -12,0 -22,2 -29,7 -7,5 -12,14 -17,26zm94 57c-9,3 -23,7 -42,11 -20,4 -33,8 -39,12 -9,6 -13,15 -13,25 0,9 3,18 11,25 7,7 16,11 28,11 12,0 24,-5 36,-13 8,-6 14,-14 16,-23 2,-6 3,-17 3,-34l0 -14zm204 126l-69 0 0 -264 64 0 0 38c11,-18 21,-30 30,-35 9,-6 19,-9 31,-9 16,0 31,5 46,14l-22 61c-12,-8 -23,-12 -33,-12 -10,0 -18,3 -25,8 -6,6 -12,15 -16,29 -4,14 -6,44 -6,89l0 81zm372 0l-69 0 0 -134c0,-29 -2,-47 -5,-56 -3,-8 -8,-14 -15,-19 -6,-5 -15,-7 -24,-7 -12,0 -23,3 -33,10 -10,6 -16,15 -20,26 -3,11 -5,31 -5,61l0 119 -70 0 0 -264 65 0 0 39c23,-30 52,-45 87,-45 16,0 30,3 43,9 13,5 22,12 29,21 6,9 11,18 14,29 2,11 3,27 3,47l0 164zm71 0l0 -69 69 0 0 69 -69 0zm366 0l0 -303 -108 0 0 -61 289 0 0 61 -107 0 0 303 -74 0zm297 -364l0 135c23,-27 50,-41 82,-41 16,0 30,3 43,9 13,6 23,14 30,23 6,9 11,20 13,31 3,11 4,29 4,53l0 154 -70 0 0 -139c0,-28 -1,-45 -4,-53 -3,-7 -7,-13 -14,-18 -7,-4 -15,-6 -26,-6 -11,0 -22,3 -31,8 -9,6 -16,14 -20,26 -5,11 -7,28 -7,50l0 132 -70 0 0 -364 70 0zm243 64l0 -64 69 0 0 64 -69 0zm0 300l0 -264 69 0 0 264 -69 0zm382 0l-70 0 0 -134c0,-29 -2,-47 -5,-56 -3,-8 -8,-14 -14,-19 -7,-5 -15,-7 -25,-7 -12,0 -23,3 -33,10 -9,6 -16,15 -20,26 -3,11 -5,31 -5,61l0 119 -70 0 0 -264 65 0 0 39c23,-30 52,-45 87,-45 16,0 30,3 43,9 13,5 22,12 29,21 7,9 11,18 14,29 2,11 4,27 4,47l0 164zm68 0l0 -364 70 0 0 193 81 -93 86 0 -90 97 97 167 -75 0 -67 -119 -32 35 0 84 -70 0zm285 0l0 -69 70 0 0 69 -70 0zm518 -134l71 22c-11,40 -29,70 -55,89 -25,20 -57,30 -97,30 -48,0 -88,-17 -119,-50 -31,-33 -47,-79 -47,-136 0,-61 16,-108 47,-142 31,-33 73,-50 124,-50 44,0 81,13 109,40 16,15 29,38 37,67l-73 17c-4,-19 -13,-33 -27,-44 -14,-11 -30,-17 -50,-17 -27,0 -49,10 -66,29 -17,20 -25,51 -25,95 0,46 8,78 25,98 16,20 38,29 65,29 19,0 36,-6 50,-18 14,-13 25,-32 31,-59zm200 134l-69 0 0 -264 64 0 0 38c11,-18 21,-30 30,-35 9,-6 19,-9 31,-9 16,0 31,5 46,14l-22 61c-12,-8 -23,-12 -33,-12 -10,0 -18,3 -25,8 -6,6 -12,15 -16,29 -4,14 -6,44 -6,89l0 81zm285 -83l70 12c-9,25 -24,45 -43,58 -19,13 -43,20 -72,20 -46,0 -80,-15 -102,-45 -18,-24 -26,-55 -26,-91 0,-44 11,-79 34,-103 23,-25 52,-38 87,-38 39,0 70,13 93,39 22,26 33,66 32,120l-175 0c1,21 7,37 17,48 11,12 24,18 40,18 11,0 21,-3 28,-9 7,-6 13,-16 17,-29zm4 -71c-1,-20 -6,-36 -16,-46 -10,-11 -22,-16 -36,-16 -15,0 -28,5 -38,17 -10,11 -14,26 -14,45l104 0zm178 -29l-63 -11c7,-26 20,-45 37,-57 17,-12 43,-19 78,-19 31,0 54,4 69,11 15,8 26,17 32,29 7,11 10,32 10,62l-1 82c0,23 1,40 3,51 2,11 6,23 13,35l-70 0c-2,-4 -4,-11 -6,-20 -2,-4 -2,-7 -3,-8 -12,12 -25,20 -38,26 -14,6 -28,9 -44,9 -27,0 -48,-7 -64,-22 -15,-15 -23,-34 -23,-56 0,-15 4,-28 11,-40 7,-12 17,-21 30,-27 12,-6 31,-11 55,-16 33,-6 55,-12 68,-17l0 -7c0,-14 -3,-24 -10,-29 -7,-6 -19,-9 -38,-9 -12,0 -22,2 -29,7 -7,5 -12,14 -17,26zm94 57c-9,3 -23,7 -43,11 -19,4 -32,8 -38,12 -9,6 -13,15 -13,25 0,9 3,18 11,25 7,7 16,11 28,11 12,0 24,-5 36,-13 8,-6 14,-14 16,-23 2,-6 3,-17 3,-34l0 -14zm258 -138l0 56 -48 0 0 107c0,21 1,34 2,38 1,3 3,6 6,8 3,3 7,4 12,4 6,0 16,-2 28,-7l6 55c-16,7 -35,10 -55,10 -13,0 -24,-2 -34,-6 -10,-5 -18,-10 -22,-17 -5,-7 -8,-16 -10,-27 -2,-8 -2,-25 -2,-50l0 -115 -32 0 0 -56 32 0 0 -52 69 -42 0 94 48 0zm202 181l70 12c-9,25 -23,45 -42,58 -20,13 -44,20 -73,20 -46,0 -80,-15 -102,-45 -17,-24 -26,-55 -26,-91 0,-44 11,-79 34,-103 23,-25 52,-38 87,-38 39,0 70,13 93,39 23,26 34,66 32,120l-174 0c0,21 6,37 17,48 10,12 24,18 40,18 11,0 20,-3 27,-9 8,-6 13,-16 17,-29zm4 -71c0,-20 -5,-36 -15,-46 -10,-11 -22,-16 -37,-16 -15,0 -27,5 -37,17 -10,11 -15,26 -15,45l104 0z"/>
   <path class="fil3" d="M6705 4855c2525,0 4572,2047 4572,4572 0,2525 -2047,4572 -4572,4572 -2525,0 -4572,-2047 -4572,-4572 0,-2525 2047,-4572 4572,-4572z"/>
   <g>
    <path class="fil4" d="M2106 10667l-2 -74c61,-2 112,12 152,41 41,29 69,71 85,126 16,56 17,105 4,147 -13,42 -38,79 -77,110 -38,30 -82,53 -132,67 -55,16 -106,19 -152,10 -47,-10 -86,-31 -118,-63 -32,-33 -55,-72 -68,-118 -15,-53 -14,-101 3,-144 16,-43 47,-79 91,-107l35 64c-34,23 -57,48 -68,76 -11,29 -11,60 -1,95 11,40 30,71 57,93 27,21 59,33 94,35 36,1 71,-3 106,-12 44,-13 82,-31 111,-53 30,-22 49,-50 58,-82 8,-32 8,-64 -1,-96 -11,-38 -32,-68 -62,-88 -30,-21 -68,-30 -115,-27zm-49 -140c-72,13 -128,2 -170,-32 -35,-28 -57,-66 -65,-114 -10,-54 0,-101 29,-141 29,-40 74,-66 136,-77 50,-9 90,-8 122,2 31,10 57,28 78,54 21,25 34,55 41,89 9,55 0,102 -29,142 -29,40 -76,65 -142,77zm-12 -68c50,-8 85,-26 106,-52 21,-26 28,-56 23,-89 -6,-33 -24,-58 -52,-75 -29,-18 -69,-22 -120,-13 -48,9 -82,26 -103,53 -21,26 -28,55 -23,88 6,33 24,58 52,76 29,17 68,21 117,12zm104 -663l-50 4c41,22 63,57 67,106 3,31 -4,60 -19,88 -15,28 -38,50 -68,67 -30,17 -65,26 -105,30 -39,3 -75,-1 -108,-12 -33,-11 -59,-28 -78,-53 -19,-25 -30,-54 -33,-86 -1,-24 2,-46 11,-65 8,-19 20,-35 35,-48l-195 15 -5 -67 544 -41 4 62zm-180 226c50,-4 87,-17 110,-40 24,-24 34,-50 32,-79 -2,-29 -16,-53 -41,-72 -26,-18 -63,-26 -112,-22 -53,4 -92,17 -116,40 -23,23 -34,50 -32,80 3,30 17,54 42,72 26,18 65,25 117,21zm-300 -382l-76 2 -2 -67 76 -2 2 67zm469 -12l-395 10 -2 -67 396 -10 1 67zm-5 -169l-396 -10 2 -61 56 2c-43,-30 -63,-73 -62,-127 1,-24 6,-46 15,-66 9,-19 21,-34 35,-44 14,-9 31,-16 50,-19 12,-2 34,-3 65,-2l243 6 -2 67 -240 -6c-28,-1 -48,1 -62,6 -13,5 -24,14 -33,27 -8,13 -13,28 -13,46 -1,29 8,53 25,75 18,21 52,32 103,33l215 6 -1 67zm45 -408l18 -63c20,0 35,-6 46,-17 14,-15 23,-36 27,-65 4,-31 1,-55 -9,-74 -10,-18 -26,-32 -48,-40 -13,-5 -41,-11 -84,-16 31,34 43,72 38,115 -7,54 -32,94 -75,118 -42,25 -91,34 -145,27 -37,-5 -71,-16 -101,-34 -30,-17 -52,-40 -66,-68 -14,-28 -18,-59 -14,-94 6,-46 30,-82 71,-107l-48 -6 8 -61 338 43c62,7 104,19 128,35 24,15 41,38 53,66 11,29 14,63 9,103 -6,46 -21,83 -46,109 -24,26 -58,36 -100,29zm-228 -84c51,7 90,1 116,-16 26,-18 41,-42 45,-73 4,-30 -4,-57 -25,-81 -21,-24 -56,-39 -107,-45 -47,-6 -85,0 -112,18 -27,18 -42,42 -46,72 -4,30 5,57 26,80 21,24 56,39 103,45zm316 -822c13,29 21,56 23,81 2,24 0,49 -8,75 -11,41 -31,71 -58,87 -26,17 -55,21 -87,12 -19,-5 -34,-14 -47,-27 -13,-13 -22,-28 -28,-44 -5,-16 -8,-34 -8,-52 1,-14 3,-34 7,-61 9,-53 12,-94 10,-121 -8,-3 -14,-4 -16,-5 -26,-7 -47,-7 -61,3 -19,12 -33,34 -42,67 -9,30 -10,54 -3,72 6,17 22,33 47,48l-27 61c-25,-14 -44,-30 -57,-47 -13,-18 -20,-41 -22,-68 -2,-28 2,-58 11,-91 9,-32 20,-58 34,-76 13,-18 27,-30 41,-37 15,-6 31,-8 50,-7 12,1 32,5 60,13l86 25c60,17 98,26 114,28 17,2 34,1 51,-3l-19 68c-16,2 -33,2 -51,-1zm-145 -36c3,26 1,64 -6,112 -3,28 -4,48 -3,61 2,12 6,22 14,31 7,8 16,14 28,18 17,4 33,2 48,-8 15,-10 26,-27 33,-52 7,-25 8,-49 3,-71 -5,-22 -16,-41 -32,-55 -13,-11 -33,-21 -62,-29l-23 -7zm234 -112l-368 -145 22 -56 52 21c-29,-43 -34,-90 -14,-141 9,-22 21,-41 36,-56 15,-15 31,-25 48,-29 16,-5 34,-5 54,-2 12,3 33,9 61,21l226 89 -24 62 -224 -88c-25,-10 -45,-15 -60,-15 -14,0 -27,4 -40,14 -12,9 -22,22 -28,39 -11,26 -11,52 -2,78 9,26 38,48 85,67l200 79 -24 62zm262 -626l-45 -20c25,39 28,80 8,125 -13,28 -33,51 -60,68 -27,17 -57,25 -91,26 -35,0 -70,-8 -107,-24 -36,-17 -66,-37 -89,-62 -24,-26 -39,-54 -43,-85 -5,-31 -1,-61 13,-90 10,-22 23,-39 40,-52 16,-13 35,-21 54,-25l-179 -81 28 -61 497 224 -26 57zm-267 112c47,21 85,27 117,18 32,-10 53,-27 65,-54 12,-27 12,-54 -2,-83 -13,-28 -42,-53 -87,-73 -49,-22 -89,-29 -121,-20 -31,8 -53,27 -66,55 -12,27 -12,54 2,83 14,28 45,53 92,74zm453 -456l-445 -316 141 -197c28,-40 53,-67 76,-82 22,-15 48,-21 77,-19 29,2 56,12 80,29 32,22 51,52 58,87 7,36 -1,77 -26,124 19,-10 35,-17 48,-20 28,-6 59,-8 93,-6l176 9 -52 74 -134 -7c-39,-2 -70,-3 -92,-2 -22,1 -39,4 -51,9 -12,5 -22,11 -31,18 -6,6 -14,16 -25,32l-49 68 198 140 -42 59zm-206 -235l89 -127c19,-27 32,-49 37,-69 5,-19 4,-36 -3,-53 -6,-16 -17,-30 -31,-40 -21,-15 -44,-20 -68,-14 -25,5 -48,25 -72,57l-100 141 148 105zm355 -315c-55,-47 -83,-98 -83,-152 0,-45 16,-86 48,-123 36,-41 78,-63 128,-66 49,-2 98,17 145,58 38,33 64,65 76,95 12,31 14,63 7,95 -7,33 -21,62 -44,88 -36,42 -79,64 -128,67 -49,2 -99,-18 -149,-62zm45 -51c38,33 74,49 107,49 34,-1 62,-13 84,-39 21,-25 30,-54 25,-87 -4,-34 -26,-67 -65,-101 -37,-32 -72,-48 -106,-47 -33,0 -61,13 -83,38 -22,25 -30,54 -26,87 4,34 26,67 64,100zm443 -201l-45 43 -376 -395 48 -46 134 141c-3,-45 11,-83 42,-113 18,-17 38,-29 60,-37 23,-8 45,-11 68,-7 22,3 45,11 68,23 23,13 44,29 64,50 46,49 70,98 72,148 1,50 -16,91 -50,123 -33,32 -73,44 -119,34l34 36zm-139 -145c33,34 61,55 85,61 39,10 71,3 98,-21 21,-21 30,-47 28,-80 -2,-33 -20,-68 -55,-105 -36,-37 -69,-57 -101,-61 -32,-4 -58,4 -79,24 -21,21 -31,47 -29,80 2,33 20,67 53,102zm259 -246c-45,-57 -63,-112 -52,-165 8,-44 32,-81 70,-111 43,-34 89,-47 138,-41 49,7 93,35 132,84 31,40 50,76 56,108 6,33 2,64 -11,95 -13,30 -33,56 -60,78 -44,34 -90,48 -138,41 -49,-7 -94,-36 -135,-89zm54 -42c31,40 63,63 96,69 33,6 63,-2 89,-22 26,-21 40,-48 42,-82 2,-33 -13,-70 -45,-111 -30,-38 -62,-60 -95,-66 -33,-6 -62,1 -88,21 -27,21 -41,48 -43,81 -2,34 13,70 44,110zm507 -210l42 43c-13,14 -26,26 -38,34 -19,14 -37,22 -52,24 -16,1 -29,-2 -41,-9 -12,-7 -29,-27 -52,-60l-132 -185 -41 28 -30 -42 41 -28 -57 -80 31 -72 80 113 55 -39 30 42 -55 39 134 189c12,15 20,25 25,28 5,3 10,4 17,4 6,-1 13,-4 21,-10 6,-4 14,-10 22,-19zm-162 -381l-41 -65 56 -36 41 64 -56 37zm253 395l-213 -333 56 -36 213 333 -56 36zm295 -345l61 -25c16,43 18,83 5,120 -13,36 -38,66 -75,87 -47,27 -94,33 -140,19 -46,-14 -85,-50 -118,-107 -21,-37 -34,-73 -37,-107 -4,-35 3,-67 20,-95 17,-28 40,-51 70,-68 37,-21 73,-29 107,-24 34,5 65,23 91,54l-51 41c-18,-20 -38,-32 -58,-35 -21,-4 -40,0 -60,11 -29,17 -47,41 -53,72 -6,32 3,70 30,115 26,46 54,75 84,85 29,11 58,8 87,-8 23,-13 38,-31 45,-54 7,-23 4,-50 -8,-81zm109 -26l56 -37c14,23 32,37 53,43 22,6 46,2 74,-10 28,-13 47,-28 55,-46 8,-17 9,-34 2,-49 -6,-14 -17,-22 -33,-24 -11,-2 -35,1 -72,7 -49,9 -85,13 -106,13 -21,0 -39,-6 -54,-16 -16,-11 -28,-25 -36,-42 -7,-17 -10,-33 -9,-50 1,-17 6,-33 15,-48 6,-11 16,-23 31,-35 14,-12 30,-22 49,-31 28,-13 55,-20 80,-21 25,-2 46,2 62,11 16,10 32,25 46,47l-56 35c-11,-17 -25,-28 -43,-33 -18,-5 -38,-2 -62,9 -28,13 -46,26 -54,41 -7,15 -8,28 -3,41 4,8 9,14 17,18 8,4 18,6 31,5 7,0 27,-3 61,-8 48,-8 82,-12 103,-13 20,0 39,4 55,14 16,9 28,25 38,45 9,21 12,42 8,66 -4,23 -15,45 -33,65 -18,20 -41,36 -69,49 -47,21 -87,27 -120,19 -34,-8 -62,-30 -86,-65zm629 -136l-149 -524 379 -108 17 62 -309 87 46 162 289 -83 18 62 -290 82 51 179 322 -91 17 61 -391 111zm732 -175l-9 -50c-18,43 -50,69 -98,77 -31,6 -61,3 -90,-10 -29,-12 -54,-33 -73,-61 -20,-28 -34,-62 -41,-101 -7,-39 -6,-75 1,-109 7,-34 22,-62 45,-83 23,-22 50,-35 82,-41 24,-4 46,-3 66,4 20,6 37,17 51,31l-34 -194 66 -11 96 537 -62 11zm-243 -157c9,50 26,85 51,106 26,21 53,28 81,23 29,-5 52,-21 68,-48 16,-27 19,-65 11,-113 -10,-53 -27,-90 -52,-112 -25,-21 -52,-29 -83,-23 -29,5 -51,21 -67,49 -15,27 -18,66 -9,118zm667 110l-4 -59c-28,47 -67,72 -120,76 -23,2 -45,-1 -66,-8 -21,-7 -37,-17 -47,-30 -11,-13 -19,-29 -25,-48 -3,-13 -6,-34 -8,-62l-19 -244 67 -5 16 218c3,35 6,58 10,70 5,17 15,30 30,39 14,9 31,13 51,12 20,-2 38,-8 55,-20 17,-12 28,-27 34,-45 6,-18 8,-44 5,-77l-16 -211 67 -5 30 394 -60 5zm427 -153l65 10c-8,45 -27,80 -57,105 -31,25 -67,36 -110,35 -54,-1 -97,-20 -129,-56 -32,-36 -47,-87 -46,-153 2,-42 10,-79 24,-111 15,-32 37,-55 67,-70 29,-15 61,-23 95,-22 42,1 77,13 104,35 27,23 43,54 50,94l-65 8c-6,-26 -16,-47 -32,-60 -15,-14 -34,-21 -56,-22 -34,-1 -62,11 -83,34 -22,24 -34,62 -35,114 -1,53 8,92 28,116 19,25 46,38 78,38 27,1 49,-6 67,-22 18,-16 30,-40 35,-73zm380 118c-26,19 -51,32 -75,39 -23,7 -48,10 -74,8 -44,-4 -76,-17 -98,-40 -22,-22 -31,-50 -29,-83 2,-19 8,-37 17,-52 11,-15 23,-27 38,-35 15,-9 31,-15 50,-19 13,-2 33,-4 60,-5 54,-2 95,-7 121,-14 1,-9 2,-15 2,-17 2,-27 -3,-47 -15,-59 -16,-17 -41,-26 -74,-28 -32,-3 -56,1 -71,11 -16,10 -29,28 -38,56l-65 -14c8,-28 20,-50 35,-66 15,-16 35,-28 62,-35 26,-7 57,-10 91,-7 33,2 61,8 81,18 20,10 35,21 44,33 9,13 15,29 18,48 1,11 1,32 -2,61l-6 89c-5,62 -7,101 -5,118 1,17 6,33 13,49l-70 -6c-6,-14 -9,-31 -10,-50zm6 -149c-25,8 -62,14 -111,17 -28,2 -48,5 -59,9 -12,4 -21,11 -28,20 -7,9 -11,19 -12,31 -2,17 4,32 17,45 12,13 32,21 58,22 25,2 49,-1 70,-11 21,-10 37,-24 47,-43 9,-14 14,-36 16,-65l2 -25zm309 186l-2 60c-19,0 -36,-1 -50,-3 -24,-4 -42,-12 -54,-21 -12,-10 -19,-22 -22,-35 -4,-14 -2,-40 6,-80l40 -224 -49 -9 9 -51 49 9 17 -96 73 -28 -24 136 66 12 -9 51 -66 -12 -41 228c-3,19 -5,31 -3,37 1,6 4,10 9,15 5,4 12,7 22,8 7,2 17,3 29,3zm137 -392l13 -75 66 12 -13 75 -66 -12zm-83 462l70 -389 66 12 -70 389 -66 -12zm197 -166c20,-70 54,-117 103,-140 41,-18 85,-21 132,-8 52,15 90,44 113,88 24,43 27,95 10,156 -14,48 -32,85 -55,109 -23,23 -50,39 -83,47 -32,7 -65,6 -98,-3 -53,-15 -91,-45 -115,-88 -23,-43 -25,-97 -7,-161zm66 19c-14,48 -14,88 1,118 14,30 38,50 70,59 32,9 62,4 90,-14 29,-18 50,-52 64,-102 13,-47 12,-85 -2,-115 -15,-31 -38,-50 -70,-59 -32,-10 -62,-5 -90,13 -28,18 -49,51 -63,100zm313 292l145 -368 56 22 -21 52c43,-29 90,-34 141,-14 22,9 41,21 56,36 15,15 25,31 29,48 5,16 5,34 2,54 -3,12 -9,33 -21,62l-89 225 -62 -24 88 -224c10,-25 15,-45 15,-59 0,-15 -4,-28 -14,-41 -9,-12 -22,-22 -39,-28 -26,-11 -52,-11 -78,-2 -26,9 -48,38 -67,85l-79 200 -62 -24zm798 -170l35 -68 60 31 -35 68 -60 -31zm-214 418l181 -352 59 30 -180 352 -60 -30zm151 77l197 -343 52 30 -28 49c47,-23 94,-21 141,7 21,12 38,26 51,44 13,17 20,34 22,51 2,17 -1,35 -7,53 -4,12 -13,32 -29,59l-121 210 -58 -33 120 -209c13,-23 21,-42 23,-56 3,-15 0,-29 -7,-42 -8,-14 -19,-25 -35,-34 -24,-14 -50,-19 -77,-13 -27,5 -53,30 -78,74l-108 187 -58 -34zm632 194l57 37c-14,24 -22,46 -24,67 -2,21 4,44 17,68 13,24 31,45 55,64 22,17 44,29 65,36 22,6 41,7 58,2 17,-5 31,-14 41,-27 11,-14 16,-28 16,-45 0,-16 -6,-34 -18,-55 -9,-14 -28,-41 -60,-81 -32,-41 -53,-71 -62,-92 -12,-27 -17,-52 -14,-76 2,-24 11,-45 27,-65 17,-22 39,-37 66,-46 27,-10 56,-10 87,-1 32,9 62,24 91,47 31,25 55,52 72,82 16,29 23,59 20,89 -3,30 -13,58 -32,84l-58 -39c19,-29 25,-57 19,-84 -6,-27 -26,-54 -59,-80 -34,-27 -64,-40 -90,-40 -25,0 -45,9 -59,27 -12,15 -17,33 -13,51 3,19 23,51 61,98 38,47 63,81 74,102 16,31 23,60 21,87 -2,27 -12,52 -30,75 -18,23 -42,39 -71,49 -28,10 -59,11 -93,3 -33,-8 -65,-24 -95,-48 -39,-31 -67,-62 -84,-94 -18,-32 -25,-65 -22,-99 3,-35 15,-67 37,-96zm580 546l42 52c-37,28 -74,41 -113,39 -39,-2 -75,-18 -106,-48 -39,-37 -58,-80 -57,-128 0,-48 23,-96 69,-144 29,-31 60,-53 92,-66 32,-13 64,-16 96,-7 32,8 61,24 85,47 31,30 49,62 54,96 5,35 -4,69 -26,103l-54 -37c14,-24 20,-46 18,-66 -2,-21 -12,-39 -28,-54 -24,-24 -52,-34 -84,-31 -32,3 -66,23 -102,61 -37,39 -56,73 -58,105 -2,31 9,58 33,81 19,18 40,28 64,28 24,1 49,-10 75,-31zm-17 197l412 -358 44 51 -149 129c48,-1 88,17 119,53 19,22 31,45 37,69 5,23 3,45 -6,66 -10,20 -29,43 -58,68l-189 164 -44 -51 189 -163c25,-22 39,-44 41,-64 2,-21 -6,-42 -23,-62 -13,-15 -29,-25 -48,-32 -19,-6 -38,-6 -56,0 -18,6 -39,19 -62,39l-163 141 -44 -50zm417 190c60,-42 116,-57 168,-44 44,10 80,36 108,76 31,44 43,90 34,139 -9,49 -39,91 -90,128 -42,29 -79,46 -111,50 -33,5 -64,0 -94,-15 -30,-14 -55,-35 -75,-63 -32,-46 -44,-92 -35,-141 9,-48 41,-91 95,-130zm40 56c-41,29 -66,60 -73,93 -8,32 -2,62 18,90 19,27 45,42 79,46 33,3 71,-10 113,-40 40,-29 63,-59 71,-92 7,-32 2,-62 -17,-89 -20,-28 -46,-43 -79,-47 -34,-3 -71,10 -112,39zm213 308c63,-37 120,-46 171,-28 42,15 76,43 100,86 27,47 34,94 20,142 -13,47 -47,87 -102,118 -44,25 -82,39 -115,40 -33,1 -63,-7 -92,-24 -28,-17 -51,-41 -68,-71 -28,-48 -35,-95 -21,-143 14,-47 49,-87 107,-120zm34 59c-44,26 -71,54 -82,86 -10,31 -7,62 9,91 17,29 42,47 75,53 32,7 71,-3 116,-29 42,-24 69,-52 80,-84 10,-32 7,-62 -9,-90 -17,-30 -42,-48 -74,-54 -33,-7 -71,2 -115,27zm11 431l485 -249 31 60 -486 249 -30 -60z"/>
    <path class="fil4" d="M10976 7474l34 58c-23,13 -38,30 -45,51 -7,21 -5,46 6,74 12,29 26,48 43,57 17,10 34,11 49,5 14,-6 23,-16 26,-32 2,-11 1,-35 -4,-72 -6,-50 -9,-86 -8,-107 2,-21 8,-38 20,-53 11,-15 25,-26 43,-34 17,-6 33,-8 50,-6 17,2 33,7 47,17 11,7 22,17 34,32 11,15 21,32 28,51 12,29 18,56 18,81 0,25 -5,45 -15,61 -10,16 -26,31 -49,44l-32 -57c18,-11 30,-25 35,-42 6,-17 4,-38 -6,-62 -11,-29 -24,-48 -38,-56 -14,-8 -28,-10 -41,-5 -8,3 -14,8 -18,16 -5,8 -7,18 -8,30 1,8 2,28 6,62 6,48 8,83 8,103 -1,21 -6,39 -17,54 -10,16 -26,28 -47,36 -21,8 -43,10 -66,5 -23,-5 -44,-17 -63,-36 -19,-19 -34,-43 -46,-71 -18,-48 -23,-89 -13,-121 10,-33 33,-61 69,-83zm281 568l21 64c-26,10 -46,22 -61,37 -14,16 -24,37 -29,63 -5,27 -4,55 3,86 6,27 15,49 28,68 13,19 28,31 44,38 16,7 33,8 49,5 16,-4 30,-12 40,-25 10,-12 17,-31 20,-55 3,-15 4,-49 4,-101 1,-51 4,-88 10,-110 7,-28 20,-51 36,-68 17,-17 38,-28 62,-34 27,-6 54,-4 81,6 27,9 50,28 69,54 18,26 32,58 40,93 9,40 11,76 5,109 -5,33 -19,60 -40,82 -21,22 -47,37 -78,46l-20 -67c32,-11 55,-29 67,-54 13,-25 14,-58 5,-98 -10,-43 -25,-72 -45,-88 -20,-16 -41,-21 -64,-16 -19,4 -33,15 -42,31 -9,17 -14,55 -13,115 0,60 -2,102 -7,126 -7,34 -20,61 -38,80 -19,20 -42,33 -71,40 -28,6 -56,4 -85,-6 -29,-10 -53,-29 -74,-56 -21,-27 -36,-60 -45,-98 -11,-48 -13,-90 -7,-125 7,-36 22,-66 46,-91 24,-25 53,-42 89,-51zm130 779l3 66c-46,1 -84,-11 -114,-36 -30,-24 -49,-58 -57,-100 -9,-54 0,-99 29,-138 29,-38 76,-63 141,-75 42,-8 80,-7 114,1 34,8 61,25 82,51 21,26 34,55 40,89 8,42 3,78 -13,109 -17,31 -44,53 -82,68l-21 -62c25,-11 42,-25 53,-43 10,-18 13,-38 10,-60 -6,-33 -23,-58 -51,-75 -27,-16 -67,-20 -118,-11 -52,9 -88,26 -108,50 -20,25 -28,53 -22,85 5,26 16,46 35,61 19,14 46,21 79,20zm-133 148l544 -41 5 66 -196 15c39,29 60,66 64,114 2,29 -2,54 -12,77 -10,22 -24,38 -44,49 -19,11 -49,18 -87,21l-250 19 -5 -67 250 -19c33,-3 57,-12 71,-27 14,-16 20,-37 18,-63 -2,-20 -8,-38 -20,-54 -11,-17 -26,-28 -44,-34 -18,-6 -43,-8 -74,-6l-215 17 -5 -67zm145 696l-11 69c-40,-12 -71,-33 -92,-63 -22,-30 -32,-68 -31,-114 2,-57 21,-102 57,-135 36,-33 87,-49 151,-47 66,1 117,20 153,55 36,35 53,80 51,134 -1,53 -20,95 -57,128 -36,32 -87,48 -153,46 -3,0 -9,0 -17,-1l7 -294c-43,1 -77,13 -100,34 -24,22 -36,49 -37,82 -1,24 5,45 18,63 12,18 33,32 61,43zm113 -217l-6 220c34,-2 59,-10 76,-23 26,-21 40,-48 41,-82 0,-31 -9,-57 -29,-78 -20,-21 -48,-34 -82,-37zm-249 368l393 49 -8 60 -55 -7c17,15 31,33 40,55 9,22 12,46 8,72 -3,29 -13,52 -27,69 -14,17 -33,28 -55,33 41,37 59,80 53,130 -5,39 -20,68 -44,86 -24,18 -59,25 -103,19l-269 -34 8 -67 247 32c26,3 46,3 58,0 12,-2 23,-9 31,-20 9,-10 14,-23 16,-38 4,-28 -3,-52 -19,-73 -16,-20 -44,-33 -84,-38l-228 -29 9 -67 254 33c30,4 53,1 69,-8 16,-9 26,-26 29,-50 2,-19 -1,-37 -8,-54 -8,-17 -21,-30 -39,-40 -18,-10 -45,-17 -81,-21l-203 -26 8 -66zm-45 922l-27 64c-36,-21 -61,-49 -74,-84 -14,-34 -14,-73 -2,-117 16,-56 46,-95 89,-118 44,-23 96,-25 158,-8 64,18 109,49 134,92 26,43 32,90 17,143 -14,50 -43,87 -87,109 -44,22 -97,25 -160,7 -3,-1 -9,-3 -17,-5l81 -284c-43,-9 -78,-6 -106,9 -28,15 -47,38 -56,70 -6,23 -6,45 2,65 7,20 24,39 48,57zm164 -182l-61 212c33,6 59,5 79,-4 31,-13 51,-36 60,-69 9,-30 6,-57 -8,-83 -15,-26 -38,-44 -70,-56z"/>
   </g>
   <path class="fil4" d="M2773 12414l372 -292 110 140c20,25 33,45 41,60 12,20 18,40 19,59 1,19 -3,39 -12,58 -9,20 -23,37 -42,51 -31,25 -66,36 -104,33 -37,-3 -77,-31 -118,-83l-75 -96 -152 120 -39 -50zm234 -104l76 96c25,32 49,50 71,54 22,4 44,-2 66,-19 15,-13 25,-27 30,-44 5,-16 4,-32 -2,-48 -5,-10 -15,-26 -33,-48l-75 -95 -133 104zm43 437l248 -236 36 38 -38 36c27,-7 47,-9 61,-6 13,3 24,9 34,19 13,14 22,33 28,56l-54 22c-4,-16 -10,-29 -20,-39 -9,-9 -19,-15 -32,-17 -12,-2 -25,0 -38,6 -19,10 -37,23 -55,40l-130 123 -40 -42zm254 22c43,-46 89,-68 135,-65 39,2 74,17 104,47 34,32 51,70 52,113 0,43 -19,84 -56,123 -30,32 -59,52 -86,61 -27,9 -55,10 -82,3 -28,-7 -53,-21 -75,-42 -34,-33 -52,-71 -52,-114 0,-42 20,-85 60,-126zm43 41c-31,32 -46,62 -48,91 -1,29 9,53 30,74 21,19 46,28 75,26 29,-3 59,-20 90,-53 29,-30 44,-60 45,-89 1,-29 -8,-54 -29,-73 -21,-21 -46,-29 -75,-27 -29,2 -58,19 -88,51zm388 39l43 -51 45 38 -44 51 -44 -38zm-407 360l40 -30c7,10 13,17 18,21 9,8 18,11 28,9 9,-2 25,-15 45,-39l235 -273 44 38 -236 274c-27,32 -51,50 -70,56 -24,7 -49,0 -74,-21 -11,-11 -22,-22 -30,-35zm507 100l42 44c-29,21 -59,32 -91,31 -32,-1 -64,-13 -95,-38 -40,-31 -61,-67 -65,-109 -4,-43 11,-86 46,-129 35,-46 74,-72 117,-78 43,-7 83,4 120,34 36,28 56,63 59,106 4,42 -12,85 -47,130 -2,2 -5,6 -10,12l-200 -158c-22,31 -31,60 -28,87 2,28 15,50 37,68 17,13 35,20 53,20 19,1 40,-6 62,-20zm-92 -191l150 118c16,-24 23,-45 23,-64 -1,-29 -13,-53 -36,-71 -21,-16 -44,-23 -69,-20 -25,3 -48,15 -68,37zm386 374l44 38c-27,29 -57,46 -90,51 -34,5 -66,-3 -97,-24 -40,-25 -63,-58 -70,-99 -8,-41 4,-86 35,-134 20,-31 43,-55 68,-71 25,-17 52,-24 81,-22 28,2 55,10 80,26 31,21 51,45 61,74 10,28 8,59 -5,92l-52 -24c8,-22 9,-42 4,-59 -5,-17 -16,-31 -32,-41 -25,-16 -50,-20 -77,-13 -27,8 -53,31 -77,69 -25,39 -36,71 -32,98 3,28 17,49 41,64 19,13 39,17 59,14 20,-4 40,-17 59,-39zm157 181l-19 49c-16,-6 -29,-11 -40,-18 -18,-10 -31,-21 -38,-33 -6,-12 -9,-23 -8,-35 2,-12 11,-33 29,-63l98 -171 -37 -21 22 -39 38 21 42 -73 68 -2 -60 104 50 29 -22 39 -50 -29 -101 174c-8,14 -13,24 -13,29 -1,5 0,10 3,15 2,5 7,9 15,14 5,3 13,6 23,10zm190 166l193 -432 86 39 -35 351c-4,33 -6,57 -8,73 11,-13 30,-33 54,-59l238 -253 77 34 -194 432 -55 -25 162 -361 -288 304 -51 -23 40 -423 -165 367 -54 -24zm725 247c-27,10 -51,16 -72,17 -21,1 -43,-3 -64,-10 -36,-12 -60,-30 -74,-54 -13,-23 -15,-49 -6,-76 5,-16 14,-29 25,-40 12,-10 25,-18 39,-22 15,-4 30,-5 46,-4 12,1 29,3 52,8 46,10 81,14 104,14 3,-7 5,-12 6,-14 7,-22 7,-40 0,-53 -10,-17 -29,-30 -57,-39 -26,-9 -47,-11 -62,-6 -15,5 -30,18 -44,39l-51 -25c13,-22 27,-38 43,-48 16,-11 36,-16 60,-17 24,0 50,4 78,14 27,9 49,20 64,32 15,13 25,25 30,38 5,12 7,27 5,43 -2,10 -6,27 -14,52l-25 73c-17,51 -27,83 -29,98 -3,14 -2,29 0,43l-57 -19c-2,-13 -1,-28 3,-44zm36 -124c-23,2 -55,-1 -97,-9 -24,-5 -41,-6 -52,-6 -11,1 -20,5 -27,11 -8,6 -14,14 -17,23 -5,15 -3,29 5,42 7,14 22,24 43,31 22,8 42,9 62,6 19,-4 36,-13 49,-26 10,-10 19,-28 27,-52l7 -20zm87 206l93 -330 50 14 -13 47c34,-29 74,-37 120,-24 20,5 37,14 52,26 14,12 24,24 29,38 5,14 7,30 6,46 -1,11 -5,30 -12,56l-57 202 -56 -15 56 -201c7,-23 9,-40 8,-53 -1,-12 -6,-23 -15,-33 -9,-10 -22,-17 -36,-21 -24,-7 -47,-5 -68,5 -22,10 -38,37 -50,79l-51 180 -56 -16zm584 89c-25,14 -47,23 -68,27 -21,4 -43,4 -66,0 -37,-7 -63,-21 -80,-43 -17,-21 -22,-46 -17,-74 3,-17 9,-31 19,-43 10,-13 22,-22 36,-28 13,-6 28,-10 44,-11 12,-1 30,-1 53,1 47,3 82,2 105,-1 2,-8 3,-13 3,-15 5,-23 2,-40 -7,-52 -12,-16 -33,-26 -62,-31 -27,-5 -47,-4 -62,3 -14,7 -27,22 -38,45l-54 -18c9,-23 21,-41 36,-53 14,-13 33,-21 57,-25 23,-4 49,-3 78,2 29,5 52,13 69,23 17,10 28,21 35,33 7,12 10,26 11,42 0,10 -2,28 -7,53l-14 76c-9,53 -14,86 -15,101 0,15 2,29 7,43l-60 -11c-3,-13 -4,-27 -3,-44zm18 -127c-22,4 -54,6 -97,4 -24,-1 -42,0 -52,2 -11,3 -19,8 -26,15 -7,7 -11,15 -13,25 -3,15 1,29 10,41 10,12 26,20 48,25 22,4 43,2 62,-4 19,-7 34,-17 45,-32 8,-12 15,-31 19,-56l4 -20zm102 217l55 15c0,17 5,31 15,40 13,12 31,20 56,23 27,3 48,1 64,-8 16,-9 28,-23 35,-41 4,-12 9,-36 13,-74 -29,27 -62,38 -99,33 -47,-5 -81,-27 -103,-64 -21,-36 -29,-78 -23,-125 4,-33 13,-62 28,-88 15,-26 35,-45 59,-57 24,-12 52,-17 82,-13 40,5 71,25 93,61l5 -41 53 6 -36 294c-7,53 -17,90 -30,110 -14,21 -33,36 -58,46 -25,10 -54,13 -88,9 -41,-5 -72,-18 -95,-39 -23,-22 -31,-51 -26,-87zm72 -198c-5,44 0,78 15,100 15,23 36,36 63,39 26,3 50,-4 70,-22 21,-18 33,-49 39,-92 5,-42 0,-74 -16,-98 -16,-23 -37,-36 -63,-40 -26,-3 -49,5 -69,23 -21,19 -34,49 -39,90zm544 104l60 10c-10,35 -29,61 -55,80 -26,18 -59,27 -98,26 -50,-2 -89,-18 -118,-50 -28,-31 -42,-75 -40,-131 2,-57 18,-101 48,-132 31,-31 70,-46 117,-44 46,1 82,18 110,50 28,31 42,76 40,132 0,4 0,9 -1,16l-255 -8c1,38 11,67 30,87 18,21 42,31 70,32 21,1 40,-4 55,-15 15,-11 28,-28 37,-53zm-187 -98l191 5c-2,-29 -9,-50 -20,-65 -18,-23 -42,-35 -71,-36 -27,-1 -49,8 -68,25 -19,17 -29,41 -32,71zm318 218l-26 -342 52 -4 4 48c9,-17 22,-32 39,-43 17,-12 37,-18 60,-20 25,-2 46,2 63,11 17,9 30,23 38,41 24,-42 57,-64 101,-68 34,-2 61,5 81,23 19,17 31,45 34,84l17 234 -57 5 -17 -215c-2,-23 -5,-40 -9,-50 -5,-10 -12,-17 -23,-23 -10,-5 -22,-7 -35,-6 -24,1 -44,11 -58,28 -15,17 -21,43 -18,79l15 198 -58 4 -17 -222c-2,-25 -8,-44 -19,-56 -10,-12 -26,-18 -47,-16 -17,1 -31,7 -45,16 -13,10 -22,23 -27,40 -5,17 -6,41 -4,72l14 177 -58 5zm759 -191l61 -3c-3,36 -16,66 -37,90 -22,23 -52,39 -91,46 -49,9 -91,1 -126,-24 -34,-25 -56,-65 -66,-120 -10,-56 -4,-103 20,-140 23,-36 58,-59 104,-67 45,-8 85,0 119,26 34,25 56,66 66,121 1,3 2,9 3,15l-251 46c9,37 24,63 46,79 23,17 48,22 76,17 21,-4 38,-13 51,-26 12,-14 21,-34 25,-60zm-204 -57l188 -34c-8,-28 -19,-48 -33,-60 -22,-19 -48,-26 -77,-20 -26,4 -46,17 -61,38 -15,21 -20,46 -17,76zm356 143l-78 -334 51 -12 11 48c16,-42 47,-68 94,-79 20,-5 39,-5 58,-2 18,3 33,10 44,20 11,9 20,22 27,37 5,10 10,28 16,55l47 205 -56 13 -47 -203c-5,-23 -11,-40 -19,-50 -7,-11 -16,-18 -29,-22 -13,-5 -27,-5 -42,-1 -24,5 -43,17 -57,37 -14,19 -16,50 -6,93l42 182 -56 13zm464 -171l21 47c-15,8 -28,13 -41,17 -20,5 -36,7 -49,3 -13,-3 -24,-9 -31,-18 -8,-10 -16,-31 -26,-65l-53 -190 -41 12 -12 -43 41 -12 -23 -82 46 -49 33 115 56 -15 12 43 -56 16 54 193c5,16 9,26 12,30 3,4 7,7 13,8 5,1 12,1 20,-1 6,-2 14,-5 24,-9zm365 -584l59 -23 99 255c17,44 26,81 26,111 0,30 -10,58 -30,85 -19,26 -50,48 -93,64 -41,16 -77,22 -109,18 -32,-4 -59,-17 -80,-40 -22,-22 -42,-57 -60,-104l-99 -254 58 -23 99 255c15,38 30,65 44,80 14,15 32,25 53,28 21,3 44,0 69,-10 43,-17 69,-38 80,-65 10,-26 5,-67 -17,-123l-99 -254zm317 372l-155 -306 47 -23 22 43c5,-44 29,-77 72,-99 18,-9 37,-14 55,-15 19,-2 35,1 48,8 13,7 25,17 36,30 6,9 16,25 28,49l95 188 -52 26 -94 -186c-11,-21 -21,-36 -30,-44 -9,-8 -21,-13 -34,-14 -13,-1 -27,2 -41,9 -22,11 -37,27 -46,49 -9,22 -4,53 16,92l84 167 -51 26zm120 -523l-33 -57 51 -29 33 57 -51 29zm204 352l-172 -296 51 -30 172 297 -51 29zm205 -186l35 39c-12,12 -24,21 -34,28 -18,11 -34,17 -47,18 -14,1 -25,-2 -35,-9 -10,-7 -24,-25 -43,-54l-106 -167 -36 24 -24 -38 36 -23 -46 -72 30 -60 65 100 49 -31 24 38 -49 31 108 169c9,14 15,23 20,26 4,3 9,4 14,4 6,0 12,-2 19,-7 6,-4 12,-9 20,-16zm125 -194l-33 -47 146 -105 33 47 -146 105zm462 -434l-39 -40 146 -138 120 127c-5,39 -16,74 -31,106 -15,31 -35,59 -60,82 -34,32 -71,54 -112,66 -42,12 -82,10 -122,-4 -40,-14 -76,-37 -108,-71 -32,-33 -54,-71 -68,-113 -13,-42 -13,-83 0,-122 12,-39 36,-74 70,-107 25,-23 51,-41 79,-51 27,-11 54,-15 79,-12 25,4 51,15 79,32l-30 50c-22,-12 -42,-20 -59,-23 -17,-3 -35,0 -55,7 -20,8 -39,19 -56,36 -21,19 -35,40 -45,60 -9,21 -13,41 -12,60 0,19 4,37 10,54 12,30 29,57 53,82 29,31 58,51 88,62 30,11 60,11 90,2 29,-9 56,-24 78,-45 20,-19 35,-41 47,-66 11,-26 18,-47 19,-65l-61 -64 -100 95zm191 -156c-48,-42 -72,-86 -72,-132 0,-39 13,-75 41,-107 31,-35 67,-55 110,-57 43,-3 85,14 126,49 34,29 56,56 66,83 11,26 13,54 7,82 -6,28 -19,54 -38,76 -31,37 -68,56 -111,58 -42,3 -86,-15 -129,-52zm39 -45c33,28 64,42 93,42 29,-1 53,-12 72,-34 19,-22 26,-47 22,-76 -4,-29 -23,-58 -57,-87 -32,-27 -63,-41 -92,-41 -29,1 -53,12 -71,34 -19,22 -27,47 -23,76 4,28 22,57 56,86zm449 -342c1,29 -2,53 -8,73 -7,21 -17,40 -31,58 -23,29 -49,47 -76,51 -26,5 -51,-2 -73,-19 -14,-11 -23,-23 -29,-38 -7,-14 -9,-29 -8,-44 1,-15 5,-30 11,-45 5,-10 13,-26 25,-46 25,-40 41,-71 49,-93 -7,-6 -10,-9 -12,-10 -19,-15 -35,-21 -50,-18 -19,4 -38,17 -56,40 -17,22 -26,40 -26,57 -1,16 7,34 22,54l-41 40c-16,-19 -26,-38 -31,-57 -4,-19 -3,-39 5,-62 7,-22 20,-45 39,-69 18,-23 35,-39 52,-49 17,-10 32,-16 45,-16 14,0 28,3 43,10 9,5 23,15 43,31l61 48c42,33 70,53 83,60 12,7 26,12 41,14l-38 48c-13,-3 -27,-9 -40,-18zm-104 -76c-7,22 -21,52 -42,89 -12,21 -20,36 -23,47 -2,10 -2,20 1,29 3,10 9,17 17,24 12,9 25,13 41,10 15,-3 30,-14 44,-31 13,-18 22,-37 25,-56 3,-20 1,-38 -7,-55 -7,-13 -20,-27 -40,-43l-16 -14z"/>
  </g>
  <g id="_1607188086640">
   <path class="fil5" d="M21163 7196l1953 4c9,321 -12,662 -15,983 -2,288 -17,692 34,966l294 5c63,-273 32,-2028 15,-2289 -39,-14 -2197,-21 -2276,-2l-5 333z"/>
   <path class="fil5" d="M18227 12067c218,37 1407,17 1715,16 185,0 390,8 573,-6l3 -321 -1956 -12 0 -1944 -331 3 -4 2264z"/>
   <path class="fil5" d="M23096 11741l-1920 4 -16 335 2277 1 1 -2280 -303 1c-47,175 63,1511 -39,1939z"/>
   <path class="fil5" d="M18260 9120l294 -19c12,-102 8,-775 10,-939 1,-159 2,-317 4,-476 0,-65 -12,-446 12,-473 120,-106 1637,3 1925,-30l2 -308 -2228 -2 -19 2247z"/>
   <path class="fil5" d="M21484 7836l962 14 17 966c89,2 261,13 341,-7l-1 -1283 -1321 -10 2 320z"/>
   <polygon class="fil5" points="18880,8812 19220,8816 19214,7861 20176,7837 20179,7515 18883,7516 "/>
   <polygon class="fil5" points="22461,11095 21486,11102 21490,11422 22785,11434 22804,10127 22466,10120 "/>
   <polygon class="fil5" points="18882,11406 20185,11417 20179,11101 19221,11100 19219,10130 18886,10119 "/>
   <polygon class="fil5" points="19545,10780 20212,10784 20212,10118 19529,10117 "/>
   <polygon class="fil5" points="21476,8818 22139,8818 22142,8155 21474,8151 "/>
   <polygon class="fil5" points="21476,10783 22139,10784 22142,10121 21476,10117 "/>
   <polygon class="fil5" points="19545,8818 20194,8818 20212,8152 19546,8151 "/>
   <path class="fil6" d="M18496 12829l0 -361 74 0 0 300 182 0 0 61 -256 0zm461 -83l70 12c-9,25 -23,45 -42,58 -20,13 -44,20 -73,20 -46,0 -80,-15 -102,-45 -17,-24 -26,-55 -26,-91 0,-44 11,-78 34,-103 23,-25 52,-38 87,-38 39,0 70,13 93,39 23,26 34,66 32,120l-174 0c0,21 6,37 17,48 10,12 24,18 40,18 11,0 20,-3 27,-9 8,-6 13,-16 17,-29zm4 -71c0,-20 -5,-36 -15,-46 -10,-11 -22,-16 -37,-16 -15,0 -27,6 -37,17 -10,11 -15,26 -15,45l104 0zm179 -28l-64 -12c8,-25 20,-45 37,-57 18,-12 44,-19 78,-19 31,0 54,4 70,11 15,8 26,17 32,29 6,11 9,32 9,62l-1 82c0,23 1,40 3,51 3,11 7,23 13,35l-69 0c-2,-4 -4,-11 -7,-20 -1,-4 -2,-7 -3,-8 -11,12 -24,20 -38,26 -13,6 -28,9 -43,9 -27,0 -49,-7 -64,-22 -16,-15 -24,-33 -24,-56 0,-15 4,-28 11,-40 7,-12 17,-21 30,-27 13,-6 31,-11 55,-16 33,-6 56,-12 68,-17l0 -7c0,-14 -3,-24 -10,-29 -6,-6 -19,-9 -37,-9 -13,0 -22,2 -29,7 -7,5 -13,14 -17,27zm93 56c-9,3 -23,7 -42,11 -20,4 -32,8 -38,12 -9,6 -14,15 -14,25 0,9 4,18 11,25 7,7 17,11 28,11 12,0 25,-5 36,-13 8,-6 14,-14 17,-23 1,-6 2,-17 2,-34l0 -14zm205 126l-70 0 0 -264 65 0 0 38c11,-18 21,-30 30,-35 9,-6 19,-9 30,-9 16,0 31,5 46,14l-22 61c-11,-8 -22,-12 -32,-12 -10,0 -19,3 -25,8 -7,6 -13,15 -16,29 -4,14 -6,44 -6,89l0 81zm372 0l-70 0 0 -134c0,-29 -2,-47 -5,-56 -3,-8 -7,-14 -14,-19 -7,-5 -15,-7 -25,-7 -12,0 -23,3 -33,10 -9,6 -16,15 -20,26 -3,11 -5,31 -5,61l0 119 -70 0 0 -264 65 0 0 39c23,-30 52,-45 87,-45 16,0 30,3 43,9 13,5 23,12 29,21 7,9 11,18 14,29 2,11 4,27 4,47l0 164zm70 0l0 -69 70 0 0 69 -70 0zm366 0l0 -303 -108 0 0 -61 289 0 0 61 -107 0 0 303 -74 0zm297 -364l0 135c23,-27 50,-41 82,-41 16,0 31,3 44,9 13,6 22,14 29,23 7,10 11,20 14,31 2,11 3,29 3,53l0 154 -70 0 0 -139c0,-28 -1,-45 -4,-53 -2,-7 -7,-13 -14,-17 -7,-5 -15,-7 -25,-7 -12,0 -23,3 -32,8 -9,6 -16,15 -20,26 -4,11 -7,28 -7,50l0 132 -69 0 0 -364 69 0zm243 64l0 -64 70 0 0 64 -70 0zm0 300l0 -264 70 0 0 264 -70 0zm382 0l-70 0 0 -134c0,-29 -1,-47 -4,-56 -3,-8 -8,-14 -15,-19 -7,-5 -15,-7 -25,-7 -12,0 -23,3 -32,10 -10,6 -17,15 -20,26 -4,11 -6,31 -6,61l0 119 -70 0 0 -264 65 0 0 39c23,-30 52,-45 88,-45 15,0 29,3 42,9 13,5 23,12 29,21 7,9 11,18 14,29 3,11 4,27 4,47l0 164zm68 0l0 -364 70 0 0 193 82 -93 86 0 -90 97 96 167 -75 0 -67 -119 -32 35 0 84 -70 0zm285 0l0 -69 70 0 0 69 -70 0zm518 -134l71 22c-11,40 -29,70 -54,89 -26,20 -58,30 -97,30 -49,0 -89,-17 -120,-50 -31,-33 -47,-78 -47,-136 0,-61 16,-108 47,-142 32,-33 73,-50 124,-50 45,0 81,13 109,40 16,15 29,38 37,67l-73 17c-4,-18 -13,-33 -27,-44 -13,-11 -30,-17 -50,-17 -27,0 -49,10 -65,29 -17,20 -26,51 -26,95 0,46 9,78 25,98 17,20 38,29 65,29 20,0 36,-6 51,-18 14,-13 24,-32 30,-59zm201 134l-70 0 0 -264 65 0 0 38c11,-18 21,-30 30,-35 9,-6 19,-9 30,-9 16,0 31,5 46,14l-22 61c-11,-8 -22,-12 -32,-12 -10,0 -19,3 -25,8 -7,6 -13,15 -16,29 -4,14 -6,44 -6,89l0 81zm284 -83l70 12c-9,25 -23,45 -42,58 -20,13 -44,20 -73,20 -46,0 -80,-15 -102,-45 -17,-24 -26,-55 -26,-91 0,-44 11,-78 34,-103 23,-25 52,-38 87,-38 39,0 70,13 93,39 23,26 33,66 32,120l-174 0c0,21 6,37 17,48 10,12 24,18 40,18 11,0 20,-3 27,-9 8,-6 13,-16 17,-29zm4 -71c0,-20 -6,-36 -15,-46 -10,-11 -22,-16 -37,-16 -15,0 -27,6 -37,17 -10,11 -15,26 -15,45l104 0zm179 -28l-64 -12c8,-25 20,-45 37,-57 18,-12 44,-19 78,-19 31,0 54,4 70,11 15,8 26,17 32,29 6,11 9,32 9,62l-1 82c0,23 1,40 3,51 3,11 7,23 13,35l-69 0c-2,-4 -5,-11 -7,-20 -1,-4 -2,-7 -3,-8 -11,12 -24,20 -38,26 -13,6 -28,9 -43,9 -27,0 -49,-7 -64,-22 -16,-15 -24,-33 -24,-56 0,-15 4,-28 11,-40 7,-12 17,-21 30,-27 13,-6 31,-11 55,-16 33,-6 56,-12 68,-17l0 -7c0,-14 -3,-24 -10,-29 -6,-6 -19,-9 -37,-9 -13,0 -23,2 -29,7 -8,5 -13,14 -17,27zm93 56c-9,3 -23,7 -42,11 -20,4 -32,8 -38,12 -9,6 -14,15 -14,25 0,9 4,18 11,25 7,7 17,11 28,11 12,0 24,-5 36,-13 8,-6 14,-14 17,-23 1,-6 2,-17 2,-34l0 -14zm259 -138l0 56 -48 0 0 107c0,21 0,34 1,38 1,3 3,6 6,9 4,2 8,3 12,3 7,0 16,-2 28,-7l6 55c-16,7 -34,10 -55,10 -12,0 -24,-2 -34,-6 -10,-5 -17,-10 -22,-17 -5,-7 -8,-16 -10,-27 -1,-8 -2,-25 -2,-50l0 -115 -32 0 0 -56 32 0 0 -52 70 -42 0 94 48 0zm201 181l70 12c-9,25 -23,45 -42,58 -20,13 -44,20 -73,20 -46,0 -80,-15 -102,-45 -17,-24 -26,-55 -26,-91 0,-44 12,-78 35,-103 22,-25 51,-38 86,-38 40,0 71,13 93,39 23,26 34,66 33,120l-175 0c1,21 6,37 17,48 11,12 24,18 40,18 11,0 20,-3 28,-9 7,-6 13,-16 16,-29zm4 -71c0,-20 -5,-36 -15,-46 -10,-11 -22,-16 -36,-16 -16,0 -28,6 -38,17 -10,11 -15,26 -15,45l104 0z"/>
   <path class="fil6" d="M16255 10955l-2 -74c61,-2 112,12 153,41 40,29 69,71 84,126 16,56 18,106 5,148 -13,41 -39,78 -77,109 -39,31 -83,53 -133,67 -55,16 -105,19 -152,10 -47,-10 -86,-31 -118,-63 -32,-33 -55,-72 -68,-118 -15,-53 -14,-101 3,-144 16,-43 47,-79 91,-107l36 64c-35,23 -58,49 -69,77 -11,28 -11,59 -1,94 11,40 31,71 58,93 27,21 58,33 94,35 35,1 71,-3 105,-12 45,-13 82,-31 111,-53 30,-22 49,-50 58,-82 9,-32 8,-64 -1,-96 -11,-38 -31,-68 -61,-88 -30,-21 -69,-30 -116,-27zm-48 -140c-72,13 -129,2 -171,-32 -35,-28 -56,-66 -65,-114 -10,-54 0,-101 29,-141 29,-40 74,-66 136,-77 50,-8 91,-8 122,2 31,10 57,28 78,54 21,25 35,55 41,89 10,55 0,102 -29,142 -29,40 -76,65 -141,77zm-12 -68c49,-8 85,-26 105,-52 21,-26 29,-56 23,-89 -6,-33 -23,-58 -52,-75 -29,-18 -69,-22 -120,-13 -48,9 -82,26 -103,53 -21,26 -28,55 -22,88 6,33 23,58 51,76 29,17 68,21 118,12zm104 -663l-50 4c40,22 63,57 66,106 3,31 -4,60 -19,88 -15,28 -38,50 -68,67 -30,17 -65,27 -105,30 -39,3 -75,-1 -108,-12 -33,-11 -59,-28 -78,-53 -19,-25 -30,-54 -32,-86 -2,-24 1,-45 10,-65 8,-19 21,-35 36,-48l-196 15 -5 -67 544 -41 5 62zm-181 226c51,-4 87,-17 111,-40 23,-24 33,-50 31,-79 -2,-29 -16,-53 -41,-72 -25,-18 -63,-26 -111,-22 -54,4 -93,18 -117,40 -23,23 -34,50 -31,80 2,30 16,54 41,72 26,18 65,25 117,21zm-300 -382l-76 2 -1 -67 76 -2 1 67zm470 -12l-396 10 -1 -67 395 -10 2 67zm-6 -169l-396 -10 2 -60 56 1c-42,-30 -63,-73 -61,-127 0,-24 5,-46 14,-66 9,-19 21,-34 35,-44 14,-9 31,-16 50,-19 12,-2 34,-3 65,-2l243 6 -2 67 -240 -6c-27,-1 -48,1 -61,6 -14,5 -25,14 -33,27 -9,13 -13,29 -14,46 0,29 8,53 26,75 17,21 51,32 102,33l215 6 -1 67zm46 -408l17 -63c20,0 35,-6 46,-17 15,-15 24,-36 27,-65 4,-31 1,-55 -9,-74 -10,-18 -26,-31 -47,-40 -13,-5 -41,-11 -85,-16 31,34 43,72 38,115 -7,54 -32,94 -74,118 -43,25 -91,34 -146,27 -37,-5 -71,-16 -101,-34 -30,-17 -51,-40 -65,-68 -14,-28 -19,-59 -15,-94 6,-46 30,-82 72,-107l-49 -6 8 -61 339 43c61,7 103,19 127,35 24,15 42,38 53,66 11,29 14,63 9,103 -5,46 -21,83 -45,109 -25,26 -58,36 -100,29zm-229 -84c51,7 90,1 116,-16 26,-18 42,-42 45,-73 4,-30 -4,-57 -25,-81 -21,-24 -56,-39 -106,-45 -48,-6 -86,0 -113,18 -27,18 -42,43 -46,72 -4,30 5,57 26,81 22,23 56,38 103,44zm316 -822c13,29 21,56 23,81 2,24 0,49 -7,75 -12,42 -31,71 -58,87 -27,17 -56,21 -88,12 -18,-5 -34,-14 -47,-27 -13,-13 -22,-28 -28,-44 -5,-16 -8,-34 -7,-52 0,-14 2,-34 6,-61 9,-53 12,-94 11,-121 -9,-3 -15,-4 -17,-5 -26,-7 -46,-7 -60,3 -20,12 -34,34 -43,67 -9,30 -10,54 -3,72 6,17 22,33 47,48l-26 61c-26,-14 -45,-29 -58,-47 -13,-18 -20,-41 -22,-68 -2,-28 2,-58 11,-91 9,-32 21,-58 34,-76 14,-18 27,-30 42,-37 14,-6 31,-8 49,-7 12,1 32,5 61,13l85 25c60,17 98,26 115,28 16,2 33,1 50,-3l-19 68c-15,2 -32,2 -51,-1zm-145 -36c3,26 1,64 -5,113 -4,27 -5,47 -4,60 2,12 7,22 14,31 7,9 17,14 28,18 17,4 33,2 48,-8 15,-10 26,-27 33,-52 8,-25 8,-49 3,-71 -5,-22 -16,-41 -32,-55 -13,-11 -33,-21 -61,-29l-24 -7zm234 -112l-368 -145 22 -56 52 21c-29,-43 -34,-90 -14,-141 9,-22 21,-41 36,-56 16,-15 32,-25 48,-29 17,-4 35,-5 54,-2 12,3 33,10 62,21l226 89 -25 62 -223 -88c-26,-10 -46,-15 -60,-15 -15,0 -28,5 -41,14 -12,9 -21,22 -28,39 -10,26 -11,52 -2,78 10,26 38,48 85,67l201 79 -25 62zm263 -626l-46 -20c25,39 28,80 8,125 -13,28 -33,51 -60,68 -26,17 -57,25 -91,26 -34,0 -70,-8 -107,-24 -35,-17 -65,-37 -89,-62 -24,-26 -38,-54 -43,-85 -5,-31 0,-61 13,-90 10,-22 23,-39 40,-52 17,-13 35,-21 55,-25l-179 -81 27 -61 497 225 -25 56zm-267 112c46,21 85,27 116,18 32,-10 54,-27 66,-54 12,-27 11,-54 -2,-83 -14,-28 -43,-53 -87,-73 -49,-22 -90,-29 -121,-20 -32,8 -54,27 -67,55 -12,27 -11,54 3,83 14,28 44,53 92,74zm452 -456l-444 -316 140 -197c28,-40 53,-67 76,-82 23,-15 48,-21 77,-19 29,2 56,12 80,29 32,23 51,52 58,87 8,36 -1,77 -26,124 19,-10 35,-17 48,-19 28,-6 59,-9 94,-7l175 9 -52 74 -134 -7c-39,-2 -70,-3 -92,-2 -22,1 -39,4 -51,9 -11,5 -22,11 -30,19 -7,5 -15,16 -26,31l-48 68 197 140 -42 59zm-206 -235l90 -127c19,-27 31,-49 36,-68 5,-20 5,-37 -2,-54 -7,-16 -17,-30 -32,-40 -21,-15 -43,-20 -68,-14 -24,5 -48,25 -71,57l-100 141 147 105zm355 -315c-55,-47 -83,-98 -83,-152 1,-45 17,-86 49,-123 35,-41 78,-63 127,-65 50,-3 98,16 145,57 39,33 64,65 76,96 12,30 14,62 8,94 -7,33 -22,62 -45,88 -36,42 -79,64 -128,67 -49,2 -99,-18 -149,-62zm45 -51c38,33 74,49 108,49 33,-1 61,-13 83,-39 22,-25 30,-54 26,-87 -5,-34 -27,-67 -66,-101 -37,-32 -72,-48 -105,-47 -34,0 -62,13 -83,38 -22,25 -31,54 -27,87 5,34 26,67 64,100zm444 -201l-46 43 -376 -395 48 -46 135 141c-4,-45 10,-83 42,-113 17,-17 37,-29 60,-37 22,-8 45,-10 67,-7 22,3 45,11 68,23 23,13 44,29 64,50 47,49 71,98 72,148 1,50 -15,91 -49,123 -34,32 -74,44 -120,34l35 36zm-139 -145c32,34 60,55 84,61 39,10 72,3 98,-21 21,-21 31,-47 28,-80 -2,-33 -20,-68 -55,-105 -35,-37 -69,-57 -101,-61 -31,-4 -58,5 -79,25 -21,20 -30,46 -28,79 2,34 19,67 53,102zm258 -246c-45,-57 -62,-112 -52,-165 9,-44 32,-81 71,-111 42,-34 88,-47 137,-41 49,7 93,35 132,84 31,40 50,76 56,108 6,33 2,64 -11,95 -13,30 -33,56 -60,78 -43,34 -89,48 -138,41 -49,-7 -94,-36 -135,-89zm54 -42c31,40 63,63 96,69 33,6 63,-2 89,-22 27,-21 41,-48 42,-82 2,-33 -13,-70 -45,-111 -30,-38 -62,-60 -95,-66 -33,-6 -62,1 -88,21 -26,21 -41,48 -43,82 -2,33 13,69 44,109zm508 -210l41 43c-13,14 -25,26 -37,34 -20,14 -38,22 -53,24 -15,1 -29,-2 -41,-9 -11,-7 -29,-27 -52,-60l-132 -185 -40 29 -31 -43 41 -28 -57 -80 31 -72 80 113 55 -39 30 42 -54 39 134 189c11,15 19,25 24,28 5,3 11,4 17,4 6,-1 13,-4 21,-9 6,-5 14,-11 23,-20zm-163 -381l-41 -64 56 -37 41 64 -56 37zm253 395l-213 -333 56 -36 214 333 -57 36zm295 -345l61 -25c17,43 18,83 5,120 -12,36 -38,66 -75,87 -47,27 -93,33 -139,19 -46,-14 -86,-50 -119,-107 -21,-37 -33,-73 -37,-107 -4,-35 3,-67 20,-95 17,-28 40,-51 70,-68 37,-21 73,-29 107,-24 35,5 65,24 92,54l-51 41c-19,-20 -38,-32 -59,-35 -20,-4 -40,0 -59,11 -30,17 -48,41 -54,72 -6,32 4,70 30,115 26,46 54,75 84,85 30,11 59,8 87,-8 23,-13 38,-31 45,-54 7,-23 5,-50 -8,-81zm109 -26l56 -37c14,23 32,37 54,43 21,6 46,2 73,-10 29,-13 47,-28 55,-46 9,-17 9,-34 3,-49 -7,-14 -18,-22 -33,-24 -12,-2 -35,1 -72,7 -50,9 -85,14 -106,13 -21,0 -40,-6 -55,-16 -16,-11 -27,-25 -35,-42 -8,-17 -11,-33 -9,-50 1,-17 6,-33 14,-48 6,-11 17,-23 31,-35 14,-12 30,-22 49,-31 28,-13 55,-20 80,-21 25,-2 46,2 62,12 17,9 32,24 47,46l-56 35c-11,-17 -26,-28 -44,-33 -17,-5 -38,-2 -62,9 -28,13 -46,26 -53,41 -8,15 -9,28 -4,41 4,8 10,14 18,18 7,4 18,6 30,5 7,0 28,-3 61,-8 48,-8 83,-12 103,-13 21,0 39,4 55,14 16,9 29,25 38,45 9,21 12,42 8,66 -4,23 -14,45 -32,65 -18,20 -42,36 -70,49 -46,21 -87,27 -120,19 -33,-8 -62,-30 -86,-65zm629 -135l-149 -525 379 -108 18 62 -310 88 46 161 290 -82 17 61 -289 82 50 179 322 -91 18 61 -392 112zm732 -176l-8 -50c-18,43 -51,69 -99,77 -31,6 -61,3 -90,-10 -29,-12 -53,-33 -73,-61 -20,-28 -33,-61 -40,-101 -7,-39 -7,-75 0,-109 8,-34 23,-62 45,-83 23,-22 51,-35 83,-41 23,-4 45,-3 65,4 20,6 37,17 51,31l-34 -194 66 -11 96 537 -62 11zm-243 -157c9,50 26,85 52,106 25,21 52,28 81,23 29,-5 51,-21 67,-48 16,-27 20,-65 11,-113 -9,-53 -27,-90 -52,-112 -25,-21 -52,-29 -82,-23 -30,5 -52,21 -68,49 -15,27 -18,66 -9,118zm667 110l-4 -59c-27,47 -67,72 -120,76 -23,2 -45,-1 -66,-8 -21,-7 -36,-17 -47,-30 -11,-13 -19,-29 -24,-48 -4,-13 -7,-34 -9,-62l-19 -244 67 -5 17 218c2,35 6,58 9,70 6,17 16,30 30,39 14,9 31,13 51,12 20,-2 39,-8 55,-20 17,-12 29,-27 35,-45 5,-18 7,-44 5,-77l-16 -211 66 -5 30 394 -60 5zm427 -153l66 10c-9,45 -28,80 -58,105 -30,25 -67,36 -110,35 -54,-1 -97,-20 -129,-56 -32,-36 -47,-87 -45,-153 1,-42 9,-79 24,-111 15,-32 37,-55 66,-70 29,-15 61,-23 95,-22 43,1 78,13 104,35 27,23 44,54 50,94l-65 8c-5,-26 -16,-47 -31,-60 -16,-14 -35,-21 -57,-22 -34,-1 -61,11 -83,34 -22,24 -33,62 -35,114 -1,53 8,92 28,116 20,25 46,38 79,38 26,1 48,-6 66,-22 18,-16 30,-40 35,-73zm381 118c-27,19 -52,32 -75,39 -24,7 -49,10 -75,8 -43,-4 -76,-17 -98,-40 -21,-22 -31,-50 -28,-83 1,-19 7,-36 17,-52 10,-15 22,-27 37,-35 15,-9 32,-15 50,-19 13,-2 34,-4 60,-5 55,-2 95,-7 121,-14 1,-9 2,-15 2,-17 2,-27 -3,-47 -15,-59 -16,-16 -40,-26 -74,-28 -32,-3 -55,1 -71,11 -16,10 -29,28 -38,56l-65 -14c8,-28 20,-50 35,-66 15,-16 36,-28 62,-35 27,-7 57,-10 91,-7 34,2 61,8 81,18 21,10 36,21 45,33 9,13 14,29 17,48 1,11 1,32 -1,61l-7 89c-5,62 -6,101 -5,118 1,17 6,33 13,49l-70 -6c-6,-14 -9,-31 -9,-50zm6 -149c-25,9 -62,14 -112,17 -28,2 -47,5 -59,9 -12,4 -21,11 -28,20 -7,9 -11,19 -12,31 -1,17 4,32 17,45 13,13 32,21 58,23 26,1 49,-2 70,-12 21,-10 37,-24 48,-43 8,-14 13,-36 15,-65l3 -25zm308 186l-1 60c-20,0 -37,-1 -51,-3 -24,-4 -42,-11 -54,-21 -11,-10 -19,-22 -22,-35 -3,-14 -1,-40 6,-80l40 -224 -49 -9 9 -51 49 9 17 -96 73 -28 -24 136 66 12 -9 51 -66 -12 -41 228c-3,19 -4,31 -3,37 1,6 4,11 9,15 5,4 12,7 22,8 7,2 17,3 29,3zm137 -392l14 -75 66 12 -14 75 -66 -12zm-82 462l69 -389 66 12 -69 389 -66 -12zm196 -166c20,-70 55,-117 103,-140 41,-18 85,-21 132,-8 52,15 90,44 113,88 24,43 27,95 10,156 -14,48 -32,85 -55,109 -22,23 -50,39 -82,47 -33,7 -66,6 -99,-3 -53,-15 -91,-45 -114,-88 -24,-43 -26,-97 -8,-161zm66 19c-14,48 -13,88 1,118 15,30 38,50 70,59 32,9 62,5 91,-14 28,-18 49,-52 63,-102 13,-47 13,-85 -2,-115 -14,-31 -38,-50 -69,-59 -33,-9 -63,-5 -91,13 -28,18 -49,51 -63,100zm313 292l145 -368 56 22 -21 52c43,-29 90,-34 141,-14 22,9 41,21 56,36 16,15 26,32 30,48 4,17 4,34 1,54 -2,12 -9,33 -21,62l-89 225 -62 -24 88 -224c10,-25 15,-45 15,-59 1,-15 -4,-28 -13,-41 -10,-12 -23,-22 -39,-28 -27,-10 -53,-11 -79,-2 -26,9 -48,38 -66,85l-80 200 -62 -24zm799 -170l34 -68 60 31 -35 68 -59 -31zm-214 418l180 -352 60 31 -181 352 -59 -31zm150 77l197 -343 53 30 -28 49c46,-23 93,-20 141,7 20,12 37,26 50,44 13,17 21,34 22,51 2,17 0,35 -6,53 -4,12 -14,32 -30,59l-121 210 -58 -33 120 -209c14,-23 22,-42 24,-56 2,-15 -1,-29 -8,-42 -8,-14 -19,-25 -34,-34 -25,-14 -51,-19 -78,-13 -27,5 -53,30 -78,74l-108 187 -58 -34zm632 194l57 37c-14,24 -22,46 -24,67 -1,21 4,44 17,68 13,24 31,45 56,64 21,17 43,29 65,36 21,6 41,7 58,2 17,-5 30,-14 41,-27 10,-14 15,-28 16,-44 0,-17 -7,-35 -19,-56 -8,-14 -28,-41 -60,-81 -32,-41 -53,-71 -62,-92 -12,-27 -17,-52 -14,-76 2,-24 11,-45 27,-65 17,-22 39,-37 66,-46 27,-10 56,-10 88,-1 31,9 61,25 90,47 32,25 56,52 72,82 16,29 23,59 20,89 -2,30 -13,58 -32,84l-58 -39c19,-29 25,-57 19,-84 -6,-27 -26,-54 -59,-80 -34,-27 -64,-40 -89,-40 -26,0 -46,9 -60,27 -12,16 -16,33 -13,51 3,19 24,51 62,98 37,47 62,81 73,102 16,31 23,60 21,87 -2,27 -12,52 -30,75 -18,23 -41,39 -70,49 -29,10 -60,11 -93,3 -34,-8 -66,-24 -96,-48 -39,-31 -67,-62 -84,-94 -18,-32 -25,-65 -22,-99 3,-35 16,-66 37,-96zm581 546l41 52c-37,28 -74,41 -113,39 -39,-2 -74,-18 -105,-48 -39,-37 -59,-80 -58,-128 1,-48 24,-96 69,-144 29,-31 60,-53 92,-66 33,-13 65,-16 97,-7 32,8 60,24 84,47 31,30 49,62 54,96 5,35 -4,69 -26,103l-53 -37c13,-24 19,-46 17,-66 -2,-21 -11,-39 -27,-54 -25,-24 -53,-34 -85,-31 -32,3 -66,23 -102,61 -37,39 -56,74 -58,105 -2,31 9,58 33,81 19,18 40,28 64,28 24,1 49,-10 76,-31zm-18 197l412 -358 44 51 -148 129c48,-1 87,17 118,53 19,22 31,45 37,69 5,23 3,45 -6,66 -9,20 -29,43 -58,68l-189 164 -44 -51 189 -163c25,-22 39,-44 41,-64 2,-21 -5,-42 -23,-62 -13,-15 -29,-25 -48,-32 -19,-6 -38,-6 -56,0 -18,6 -39,19 -62,39l-163 141 -44 -50zm418 190c59,-42 115,-57 167,-44 44,10 80,36 108,76 32,44 43,90 34,139 -9,49 -39,91 -90,128 -41,29 -78,46 -111,50 -32,5 -64,0 -94,-15 -30,-14 -55,-35 -75,-63 -32,-46 -43,-92 -34,-141 9,-48 41,-91 95,-130zm39 56c-41,29 -65,60 -73,93 -7,32 -2,62 18,90 19,27 46,42 79,46 33,3 71,-10 113,-40 40,-29 64,-59 71,-92 8,-32 2,-62 -17,-89 -20,-28 -46,-43 -79,-47 -33,-3 -71,10 -112,39zm213 308c64,-37 121,-46 171,-28 43,15 76,43 100,86 27,47 34,94 21,142 -14,47 -48,87 -102,118 -44,25 -83,39 -115,40 -33,1 -64,-7 -93,-24 -28,-17 -51,-41 -68,-71 -28,-48 -35,-95 -21,-142 14,-48 50,-88 107,-121zm34 59c-43,26 -71,54 -81,86 -11,31 -8,62 9,91 16,29 41,47 74,53 33,7 72,-3 116,-29 43,-24 69,-52 80,-84 11,-32 8,-62 -9,-90 -17,-30 -41,-47 -74,-54 -33,-7 -71,2 -115,27zm11 431l486 -249 30 60 -485 249 -31 -60z"/>
   <path class="fil6" d="M25125 7762l35 58c-24,13 -39,30 -46,51 -7,21 -5,46 7,74 11,29 25,48 42,57 17,10 34,11 50,5 14,-6 22,-16 25,-32 2,-11 1,-35 -4,-72 -6,-50 -9,-86 -7,-107 1,-21 8,-38 19,-53 11,-15 26,-26 44,-33 16,-7 33,-9 50,-7 16,2 32,7 46,17 11,7 23,17 34,32 12,15 21,32 29,51 11,29 17,56 17,81 0,25 -5,45 -15,61 -10,16 -26,31 -48,44l-33 -57c18,-11 30,-24 35,-42 6,-17 4,-38 -6,-62 -11,-29 -24,-47 -38,-56 -14,-8 -28,-10 -40,-5 -8,3 -15,8 -19,16 -5,8 -7,18 -7,30 0,8 2,28 5,62 6,48 8,83 8,103 -1,21 -6,39 -16,54 -11,16 -27,28 -48,36 -20,8 -42,10 -65,5 -24,-5 -45,-17 -64,-36 -19,-19 -34,-43 -45,-71 -19,-48 -24,-88 -14,-121 10,-33 33,-61 69,-83zm281 568l21 64c-26,10 -46,22 -61,37 -14,16 -24,37 -29,64 -5,26 -4,55 3,85 6,27 16,49 29,68 12,19 27,31 43,38 16,7 33,8 49,5 17,-4 30,-12 40,-25 11,-12 17,-31 21,-55 2,-15 3,-49 4,-101 0,-51 3,-88 9,-110 8,-28 20,-51 37,-68 17,-17 37,-28 62,-34 27,-6 53,-4 80,6 27,10 50,28 69,54 19,27 32,58 41,93 9,40 10,76 5,109 -6,33 -19,60 -40,82 -21,22 -47,37 -78,46l-21 -67c33,-11 55,-29 67,-54 13,-25 14,-58 5,-98 -10,-43 -25,-72 -45,-88 -20,-16 -41,-21 -63,-16 -19,4 -33,15 -43,31 -9,17 -13,55 -13,115 0,60 -2,102 -7,126 -7,34 -20,61 -38,80 -18,20 -42,33 -70,40 -29,6 -57,5 -86,-6 -28,-10 -53,-29 -74,-56 -21,-27 -36,-60 -44,-98 -12,-48 -14,-90 -7,-125 6,-36 21,-66 45,-91 24,-25 54,-42 89,-51zm131 779l2 66c-46,1 -83,-11 -114,-36 -30,-24 -49,-58 -57,-100 -9,-54 1,-99 30,-138 29,-38 76,-63 140,-75 42,-7 80,-7 114,1 34,8 61,25 82,51 21,26 34,55 40,89 8,42 3,78 -13,109 -17,31 -44,53 -82,68l-21 -62c25,-11 43,-25 53,-43 10,-18 14,-38 10,-60 -6,-33 -23,-58 -50,-75 -28,-16 -67,-20 -119,-11 -52,10 -88,26 -108,51 -20,24 -27,52 -22,84 5,26 17,46 36,61 19,14 45,21 79,20zm-134 148l544 -41 5 66 -195 15c38,29 59,66 63,114 2,29 -2,54 -12,77 -9,22 -24,39 -44,49 -19,11 -48,18 -87,21l-249 19 -6 -67 250 -19c33,-3 57,-12 71,-27 14,-16 20,-37 18,-63 -1,-19 -8,-38 -19,-54 -12,-17 -27,-28 -45,-34 -18,-6 -42,-8 -73,-6l-216 17 -5 -67zm145 696l-11 69c-40,-12 -71,-33 -92,-63 -21,-30 -32,-68 -31,-114 2,-57 21,-102 57,-135 37,-33 87,-49 151,-47 66,1 117,20 153,55 36,35 53,80 52,134 -2,53 -21,95 -57,128 -37,32 -88,48 -153,46 -4,0 -10,0 -18,-1l7 -294c-43,1 -77,13 -100,34 -24,22 -36,49 -37,82 0,24 6,45 18,63 13,18 33,32 61,43zm113 -217l-5 220c33,-2 58,-10 75,-23 26,-21 40,-48 41,-82 1,-31 -9,-57 -29,-78 -20,-21 -47,-34 -82,-37zm-248 368l392 50 -8 59 -55 -7c17,15 31,33 40,55 9,22 12,46 9,72 -4,29 -13,52 -28,69 -14,17 -32,28 -55,33 42,37 59,80 53,130 -5,39 -19,68 -44,86 -24,18 -58,25 -103,19l-269 -34 8 -67 247 32c27,3 46,3 58,0 13,-2 23,-9 32,-20 8,-10 14,-23 15,-38 4,-28 -2,-52 -18,-73 -16,-20 -44,-33 -85,-38l-227 -29 8 -67 255 33c29,4 52,1 68,-8 16,-9 26,-26 29,-50 2,-19 0,-37 -8,-54 -8,-17 -21,-30 -39,-40 -18,-9 -45,-16 -81,-21l-203 -26 9 -66zm-45 922l-28 64c-36,-21 -61,-49 -74,-84 -13,-34 -14,-73 -1,-117 15,-56 45,-95 89,-118 43,-23 95,-25 157,-8 64,18 109,49 135,92 26,43 31,90 16,143 -14,50 -43,87 -87,109 -43,23 -97,25 -159,7 -4,-1 -10,-3 -17,-5l80 -283c-42,-10 -78,-7 -106,8 -28,15 -47,38 -55,70 -7,23 -7,45 1,65 8,21 24,39 49,57zm163 -182l-60 212c32,6 59,5 79,-4 30,-13 50,-36 59,-69 9,-29 6,-57 -8,-83 -14,-26 -38,-44 -70,-56z"/>
   <path class="fil6" d="M16923 12702l371 -292 111 140c19,25 33,45 41,60 11,20 17,40 19,59 1,19 -3,39 -13,58 -9,20 -23,37 -42,51 -31,25 -66,36 -103,33 -38,-3 -78,-31 -119,-83l-75 -96 -151 120 -39 -50zm234 -104l75 96c25,32 49,50 71,54 23,4 44,-2 66,-19 15,-13 26,-27 31,-44 4,-16 4,-32 -3,-48 -4,-10 -15,-26 -33,-48l-74 -95 -133 104zm42 437l249 -236 36 38 -38 36c26,-7 47,-9 60,-6 13,3 25,9 34,19 14,14 23,33 28,56l-53 22c-4,-16 -11,-29 -21,-39 -8,-9 -19,-15 -31,-17 -13,-2 -25,0 -38,6 -20,10 -38,23 -56,40l-130 123 -40 -42zm254 22c44,-46 89,-68 135,-65 39,2 74,17 105,47 34,32 51,70 51,113 0,43 -18,84 -56,123 -30,32 -59,52 -86,61 -27,10 -54,10 -82,3 -28,-7 -53,-21 -74,-42 -35,-33 -52,-71 -53,-114 0,-42 20,-85 60,-126zm43 41c-30,32 -46,62 -47,91 -1,29 8,53 29,74 21,20 46,28 75,26 29,-3 59,-20 90,-53 29,-30 45,-60 46,-89 1,-29 -9,-54 -30,-73 -21,-21 -46,-29 -75,-27 -28,2 -58,19 -88,51zm388 39l44 -51 44 38 -44 51 -44 -38zm-407 360l41 -30c6,10 12,17 17,21 9,8 19,11 28,9 10,-2 25,-15 45,-39l235 -273 44 38 -235 274c-28,32 -51,50 -70,56 -25,7 -50,0 -74,-21 -12,-11 -22,-22 -31,-35zm507 100l42 44c-29,21 -59,32 -91,31 -32,0 -64,-13 -95,-38 -39,-30 -61,-67 -65,-109 -4,-43 11,-86 46,-129 35,-46 75,-72 117,-78 43,-7 83,4 120,34 36,28 56,63 60,106 3,42 -13,85 -48,130 -2,2 -5,6 -9,12l-201 -158c-21,31 -31,60 -28,87 2,28 15,50 37,68 17,13 35,20 54,20 18,1 39,-6 61,-20zm-92 -191l150 119c16,-25 23,-46 23,-65 -1,-29 -13,-53 -36,-71 -21,-16 -44,-23 -69,-20 -25,3 -48,15 -68,37zm387 374l43 38c-26,29 -56,46 -90,51 -33,5 -66,-3 -97,-24 -39,-25 -63,-58 -70,-99 -7,-41 4,-86 35,-134 20,-31 43,-55 68,-71 26,-17 52,-24 81,-22 29,2 55,11 80,27 31,20 52,44 61,73 10,28 8,59 -5,92l-52 -24c8,-22 9,-42 4,-59 -5,-17 -16,-31 -32,-41 -25,-16 -50,-20 -77,-13 -27,8 -52,31 -77,69 -25,39 -36,71 -32,98 4,28 17,49 41,64 19,13 39,17 59,14 21,-4 41,-17 60,-39zm156 181l-18 49c-16,-6 -30,-11 -41,-18 -18,-10 -31,-21 -37,-33 -7,-12 -10,-23 -8,-35 1,-12 10,-33 28,-63l99 -171 -38 -21 23 -39 37 21 42 -73 68 -1 -60 103 51 29 -23 39 -50 -29 -100 174c-9,14 -13,24 -14,29 0,5 1,10 3,15 3,5 8,9 15,14 6,3 13,6 23,10zm190 166l194 -431 85 38 -35 351c-3,33 -6,57 -8,73 12,-13 30,-33 54,-59l239 -253 76 34 -194 432 -55 -25 163 -361 -288 304 -52 -23 41 -423 -165 367 -55 -24zm725 247c-26,10 -50,16 -72,17 -21,1 -42,-2 -64,-10 -36,-12 -60,-30 -74,-54 -13,-23 -15,-49 -6,-76 5,-16 14,-29 25,-40 12,-10 25,-18 40,-22 14,-4 29,-5 45,-4 12,1 29,3 52,8 46,10 81,14 105,14 2,-7 4,-12 5,-14 7,-22 7,-40 0,-53 -10,-17 -29,-30 -57,-39 -26,-9 -46,-11 -62,-6 -15,5 -30,18 -43,39l-52 -25c13,-22 27,-38 43,-48 16,-11 36,-16 60,-17 24,0 50,4 78,14 28,9 49,20 64,32 16,13 26,25 31,38 4,12 6,27 4,43 -1,10 -6,27 -14,52l-25 73c-17,51 -27,83 -29,98 -2,14 -2,29 0,44l-57 -20c-2,-13 -1,-28 3,-44zm36 -124c-22,2 -55,-1 -97,-9 -23,-5 -41,-6 -51,-5 -11,0 -20,4 -28,10 -8,6 -13,14 -17,23 -4,15 -3,29 5,42 8,14 22,24 44,31 21,8 41,9 61,6 20,-4 36,-13 49,-26 10,-10 19,-28 27,-52l7 -20zm87 206l93 -330 51 14 -14 47c35,-29 75,-37 120,-24 20,5 37,14 52,26 15,12 25,25 30,38 5,14 7,30 5,47 -1,10 -5,29 -12,55l-57 202 -56 -15 57 -201c6,-23 9,-40 7,-53 -1,-12 -6,-23 -15,-33 -9,-10 -21,-17 -36,-21 -24,-7 -46,-5 -68,5 -21,10 -38,37 -50,79l-51 180 -56 -16zm584 89c-24,14 -47,23 -68,27 -21,4 -43,4 -65,0 -37,-7 -64,-21 -81,-43 -16,-21 -22,-46 -17,-74 3,-17 9,-31 19,-43 11,-13 22,-22 36,-28 14,-6 29,-9 45,-11 11,-1 29,0 52,1 47,3 82,2 106,-1 1,-8 2,-13 3,-15 4,-23 1,-40 -8,-52 -12,-15 -33,-26 -61,-31 -27,-5 -48,-4 -63,3 -14,7 -27,22 -37,45l-55 -18c10,-23 22,-41 36,-53 14,-13 33,-21 57,-25 23,-4 50,-3 79,2 29,5 51,13 68,23 17,10 29,21 35,33 7,12 10,26 11,42 0,10 -2,28 -7,53l-14 76c-9,53 -14,87 -14,101 -1,15 2,29 6,43l-60 -11c-3,-13 -4,-27 -3,-44zm19 -127c-23,4 -55,6 -98,4 -24,-1 -41,0 -52,2 -10,3 -19,8 -26,15 -7,7 -11,15 -13,25 -2,15 1,29 11,41 9,12 25,21 48,25 22,4 42,2 61,-4 19,-6 34,-17 45,-32 9,-12 15,-31 20,-56l4 -20zm101 217l55 15c0,17 5,31 15,40 13,12 32,20 57,23 26,3 47,1 63,-8 16,-9 28,-23 35,-41 5,-12 9,-36 14,-73 -29,26 -63,37 -100,32 -47,-5 -81,-27 -102,-63 -22,-37 -30,-79 -24,-126 4,-33 14,-62 29,-88 15,-26 34,-45 59,-57 24,-12 51,-17 81,-13 40,5 71,26 93,62l5 -42 53 6 -36 294c-6,53 -16,90 -30,110 -13,21 -33,36 -57,46 -25,10 -55,13 -89,9 -41,-5 -72,-18 -95,-39 -23,-22 -31,-51 -26,-87zm73 -198c-6,44 -1,78 14,100 15,23 36,36 63,39 26,4 50,-4 70,-22 21,-18 34,-49 39,-92 5,-42 0,-74 -16,-98 -16,-23 -37,-36 -63,-40 -26,-3 -49,5 -69,24 -21,18 -33,48 -38,89zm544 104l59 10c-10,35 -28,61 -54,80 -26,18 -59,27 -99,26 -50,-2 -89,-18 -117,-50 -29,-31 -42,-75 -41,-131 2,-57 18,-101 49,-132 30,-31 69,-46 116,-44 46,1 83,18 111,50 28,32 41,76 39,132 0,4 0,9 0,16l-256 -8c2,38 11,67 30,87 18,21 42,32 70,32 22,1 40,-4 55,-15 16,-11 28,-28 38,-53zm-188 -98l191 5c-2,-29 -9,-50 -20,-65 -18,-23 -42,-35 -71,-36 -27,-1 -49,8 -68,25 -18,17 -29,41 -32,71zm318 218l-26 -342 52 -4 4 48c9,-17 23,-32 40,-43 17,-12 36,-18 59,-20 25,-2 46,2 63,11 17,9 30,23 38,41 24,-42 58,-64 101,-67 34,-3 61,4 81,22 20,17 31,45 34,84l18 234 -58 5 -17 -215c-1,-23 -5,-40 -9,-50 -5,-10 -12,-17 -22,-23 -11,-5 -23,-7 -36,-6 -24,1 -43,11 -58,28 -15,17 -21,43 -18,79l15 198 -58 4 -17 -221c-2,-26 -8,-45 -18,-57 -11,-12 -27,-18 -48,-16 -16,1 -31,7 -44,16 -13,10 -23,23 -28,40 -4,17 -6,41 -3,72l13 177 -58 5zm759 -191l61 -3c-3,36 -15,66 -37,90 -22,23 -52,39 -91,46 -49,9 -91,1 -125,-24 -35,-25 -57,-65 -67,-120 -10,-56 -4,-103 20,-140 23,-36 58,-59 105,-67 45,-8 84,0 118,26 34,25 56,66 67,121 0,4 1,9 2,15l-251 46c9,37 24,63 47,79 22,17 47,22 75,17 21,-4 38,-13 51,-26 13,-14 21,-34 25,-60zm-203 -57l187 -34c-7,-28 -18,-48 -33,-60 -22,-19 -48,-26 -76,-20 -27,4 -47,17 -62,38 -14,21 -20,46 -16,76zm355 143l-77 -334 51 -12 11 48c16,-42 47,-68 93,-79 20,-5 39,-5 58,-2 18,3 33,10 44,20 11,9 21,22 28,37 4,10 9,28 15,55l48 205 -57 13 -47 -203c-5,-23 -11,-40 -18,-50 -7,-11 -17,-18 -30,-22 -13,-5 -27,-5 -42,-1 -24,5 -43,18 -57,37 -13,19 -15,50 -6,93l42 182 -56 13zm464 -171l21 47c-14,8 -28,13 -40,17 -21,5 -37,7 -50,3 -13,-3 -23,-9 -31,-18 -7,-10 -16,-31 -25,-65l-54 -190 -41 12 -12 -43 41 -12 -23 -81 47 -50 32 115 56 -15 12 43 -56 16 55 193c4,16 8,26 11,30 3,4 8,7 13,8 5,1 12,1 20,-1 6,-2 14,-5 24,-9zm365 -584l59 -23 99 255c17,44 26,81 26,111 0,30 -10,58 -29,85 -20,26 -51,48 -93,64 -42,16 -78,22 -110,18 -32,-4 -58,-17 -80,-40 -22,-22 -42,-57 -60,-103l-99 -255 59 -23 99 255c15,38 29,65 43,80 14,16 32,25 53,28 21,3 44,0 69,-10 43,-17 69,-38 80,-65 11,-26 5,-67 -16,-123l-100 -254zm317 372l-155 -306 47 -23 22 43c5,-44 30,-77 72,-99 18,-9 37,-14 56,-15 18,-2 34,1 48,8 13,7 24,17 35,30 7,9 16,25 28,49l95 188 -52 26 -94 -186c-10,-21 -20,-36 -30,-44 -9,-8 -20,-13 -34,-14 -13,-1 -27,2 -40,9 -22,11 -38,27 -47,49 -9,22 -3,53 16,92l85 167 -52 26zm121 -523l-33 -57 50 -29 33 57 -50 29zm204 352l-172 -296 50 -29 172 296 -50 29zm205 -186l34 39c-12,12 -23,21 -34,28 -18,12 -33,18 -47,18 -13,1 -25,-2 -35,-9 -9,-7 -24,-25 -43,-54l-106 -166 -36 23 -24 -38 36 -23 -45 -72 30 -60 64 100 49 -31 24 38 -49 31 108 170c9,14 16,22 20,25 4,3 9,4 15,4 5,0 11,-2 18,-7 6,-3 13,-9 21,-16zm125 -194l-34 -47 146 -105 34 47 -146 105zm461 -434l-38 -40 145 -138 120 127c-5,39 -15,74 -31,106 -15,31 -35,59 -60,83 -34,31 -71,53 -112,65 -41,12 -82,11 -122,-3 -40,-14 -76,-38 -108,-72 -31,-33 -54,-71 -67,-113 -14,-42 -14,-83 -1,-122 13,-39 36,-74 70,-107 25,-23 51,-40 79,-51 28,-11 54,-15 79,-12 25,4 51,15 79,32l-30 50c-22,-12 -41,-20 -58,-23 -18,-3 -36,0 -56,7 -20,8 -38,19 -56,36 -20,19 -35,40 -44,60 -9,21 -14,41 -13,60 0,19 4,37 10,54 12,30 29,57 53,82 29,31 59,51 89,62 30,11 60,11 89,2 30,-9 56,-24 78,-45 20,-19 36,-41 47,-66 12,-26 18,-47 19,-65l-61 -64 -100 95zm191 -156c-48,-42 -72,-86 -72,-132 0,-39 14,-75 41,-107 31,-35 68,-55 111,-57 42,-3 84,14 126,49 33,29 55,56 65,83 11,26 13,54 7,82 -6,28 -18,54 -38,76 -31,37 -68,56 -111,58 -42,3 -85,-15 -129,-52zm39 -45c33,28 64,42 93,42 29,-1 53,-12 72,-34 19,-22 26,-47 22,-76 -4,-29 -23,-58 -57,-87 -32,-27 -63,-41 -92,-40 -29,0 -52,11 -71,33 -19,22 -27,47 -23,76 4,29 23,57 56,86zm449 -341c1,28 -2,52 -8,72 -6,21 -17,40 -31,58 -23,30 -48,47 -75,51 -27,5 -52,-2 -74,-19 -13,-11 -23,-23 -29,-38 -6,-14 -9,-29 -8,-44 1,-15 5,-30 11,-45 5,-10 13,-26 25,-46 25,-40 41,-71 49,-93 -6,-5 -10,-9 -12,-10 -18,-15 -35,-21 -49,-18 -20,4 -39,17 -57,40 -17,22 -25,41 -26,57 0,16 7,34 22,54l-41 40c-16,-19 -26,-38 -31,-57 -4,-18 -2,-39 5,-62 8,-22 21,-45 39,-68 18,-23 35,-40 52,-50 17,-10 32,-16 46,-16 13,0 27,3 42,10 9,5 24,15 44,31l60 48c43,33 70,53 83,60 13,7 26,12 41,14l-37 48c-14,-3 -27,-9 -41,-17zm-104 -77c-7,22 -20,52 -42,89 -12,21 -19,36 -22,47 -3,10 -3,20 0,29 3,10 9,18 17,24 12,9 26,13 41,10 15,-3 30,-14 44,-31 14,-18 22,-36 25,-56 4,-20 1,-38 -7,-55 -7,-13 -20,-27 -40,-43l-16 -14z"/>
  </g>
 </g>
</svg>
