<?xml version="1.0" encoding="UTF-8"?>
<svg version="1.1" xmlns="http://www.w3.org/2000/svg" width="176" height="124">
<path d="M0 0 C58.08 0 116.16 0 176 0 C176 40.92 176 81.84 176 124 C117.92 124 59.84 124 0 124 C0 83.08 0 42.16 0 0 Z " fill="#F9F9F9" transform="translate(0,0)"/>
<path d="M0 0 C0.66 0 1.32 0 2 0 C2.21914063 1.07636719 2.43828125 2.15273437 2.6640625 3.26171875 C5.75530187 18.84257196 5.75530187 18.84257196 14 32 C14.268125 32.7425 14.53625 33.485 14.8125 34.25 C15.89730495 36.76217988 16.8654456 38.16029507 18.625 40.1875 C21 43 21 43 21 45 C21.66 45 22.32 45 23 45 C24.485 47.475 24.485 47.475 26 50 C17.42 50 8.84 50 0 50 C0 33.5 0 17 0 0 Z " fill="#F2F2F2" transform="translate(0,74)"/>
<path d="M0 0 C8.58 0 17.16 0 26 0 C26 15.84 26 31.68 26 48 C25.67 48 25.34 48 25 48 C24.67 45.36 24.34 42.72 24 40 C23.34 40 22.68 40 22 40 C21.72027344 39.14019531 21.44054687 38.28039063 21.15234375 37.39453125 C16.9176668 24.90836158 11.51293562 14.20734751 2.8203125 4.14453125 C1 2 1 2 0 0 Z " fill="#F3F3F3" transform="translate(150,0)"/>
<path d="M0 0 C0.33 0 0.66 0 1 0 C1 14.52 1 29.04 1 44 C-7.58 44 -16.16 44 -25 44 C-23.02 41.36 -21.04 38.72 -19 36 C-13.35557494 28.59633475 -13.35557494 28.59633475 -10 20 C-9.34 20 -8.68 20 -8 20 C-7.79503906 19.30132812 -7.59007812 18.60265625 -7.37890625 17.8828125 C-7.10949219 16.97273438 -6.84007812 16.06265625 -6.5625 15.125 C-6.29566406 14.22007813 -6.02882812 13.31515625 -5.75390625 12.3828125 C-5 10 -5 10 -4 8 C-3.34 8 -2.68 8 -2 8 C-1.855625 6.865625 -1.71125 5.73125 -1.5625 4.5625 C-1 1 -1 1 0 0 Z " fill="#F4F4F4" transform="translate(175,80)"/>
<path d="M0 0 C8.58 0 17.16 0 26 0 C20 8 20 8 18.12890625 10.44140625 C12.94719442 17.45803847 9.48648106 25.05209484 6 33 C5.34 33 4.68 33 4 33 C4 33.66 4 34.32 4 35 C3.01 35 2.02 35 1 35 C0.67 35.66 0.34 36.32 0 37 C0 24.79 0 12.58 0 0 Z " fill="#F3F3F3" transform="translate(0,0)"/>
<path d="M0 0 C1.98 0 3.96 0 6 0 C6 13.2 6 26.4 6 40 C-7.2 40 -20.4 40 -34 40 C-34 38.02 -34 36.04 -34 34 C-22.78 34 -11.56 34 0 34 C0 22.78 0 11.56 0 0 Z " fill="#0F0F0F" transform="translate(127,67)"/>
<path d="M0 0 C1.98 0 3.96 0 6 0 C6 11.22 6 22.44 6 34 C17.22 34 28.44 34 40 34 C40 35.98 40 37.96 40 40 C26.8 40 13.6 40 0 40 C0 26.8 0 13.6 0 0 Z " fill="#0E0E0E" transform="translate(43,67)"/>
<path d="M0 0 C13.2 0 26.4 0 40 0 C40 12.87 40 25.74 40 39 C38.02 39 36.04 39 34 39 C34 28.11 34 17.22 34 6 C22.78 6 11.56 6 0 6 C0 4.02 0 2.04 0 0 Z " fill="#111111" transform="translate(93,17)"/>
<path d="M0 0 C13.2 0 26.4 0 40 0 C40 1.98 40 3.96 40 6 C28.78 6 17.56 6 6 6 C6 16.89 6 27.78 6 39 C4.02 39 2.04 39 0 39 C0 26.13 0 13.26 0 0 Z " fill="#111111" transform="translate(43,17)"/>
<path d="M0 0 C1.98 0 3.96 0 6 0 C6 7.59 6 15.18 6 23 C-1.59 23 -9.18 23 -17 23 C-17 21.02 -17 19.04 -17 17 C-11.39 17 -5.78 17 0 17 C0 11.39 0 5.78 0 0 Z " fill="#111111" transform="translate(116,73)"/>
<path d="M0 0 C1.98 0 3.96 0 6 0 C6 5.61 6 11.22 6 17 C11.61 17 17.22 17 23 17 C23 18.98 23 20.96 23 23 C15.41 23 7.82 23 0 23 C0 15.41 0 7.82 0 0 Z " fill="#111111" transform="translate(54,73)"/>
<path d="M0 0 C7.59 0 15.18 0 23 0 C23 7.59 23 15.18 23 23 C21.02 23 19.04 23 17 23 C17 17.39 17 11.78 17 6 C11.39 6 5.78 6 0 6 C0 4.02 0 2.04 0 0 Z " fill="#0F0F0F" transform="translate(99,28)"/>
<path d="M0 0 C7.59 0 15.18 0 23 0 C23 1.98 23 3.96 23 6 C17.39 6 11.78 6 6 6 C6 11.61 6 17.22 6 23 C4.02 23 2.04 23 0 23 C0 15.41 0 7.82 0 0 Z " fill="#0F0F0F" transform="translate(54,28)"/>
<path d="M0 0 C3.96 0 7.92 0 12 0 C12 3.96 12 7.92 12 12 C8.04 12 4.08 12 0 12 C0 8.04 0 4.08 0 0 Z " fill="#1C1C1C" transform="translate(99,39)"/>
<path d="M0 0 C3.96 0 7.92 0 12 0 C12 3.96 12 7.92 12 12 C8.04 12 4.08 12 0 12 C0 8.04 0 4.08 0 0 Z " fill="#1C1C1C" transform="translate(65,39)"/>
<path d="M0 0 C3.63 0 7.26 0 11 0 C11 3.63 11 7.26 11 11 C7.37 11 3.74 11 0 11 C0 7.37 0 3.74 0 0 Z " fill="#060606" transform="translate(99,73)"/>
<path d="M0 0 C3.63 0 7.26 0 11 0 C11 3.63 11 7.26 11 11 C7.37 11 3.74 11 0 11 C0 7.37 0 3.74 0 0 Z " fill="#060606" transform="translate(66,73)"/>
<path d="M0 0 C1.67542976 0.28604898 3.34385343 0.61781233 5 1 C5 2.98 5 4.96 5 7 C6.32 7.66 7.64 8.32 9 9 C8.67 10.32 8.34 11.64 8 13 C6.34385343 13.38218767 4.67542976 13.71395102 3 14 C2.67 13.67 2.34 13.34 2 13 C2.061875 12.21625 2.12375 11.4325 2.1875 10.625 C2.29295721 7.84583099 2.29295721 7.84583099 0 6.1875 C-0.66 5.795625 -1.32 5.40375 -2 5 C-1.125 1.125 -1.125 1.125 0 0 Z " fill="#8C8C8C" transform="translate(151,23)"/>
<path d="M0 0 C1.21915321 3.65745964 0.61499352 4.99545995 -0.375 8.6875 C-2.82350744 19.29769892 -2.75807633 30.15486951 -3 41 C-3.33 41 -3.66 41 -4 41 C-4.02467917 35.76725612 -4.04285003 30.53454597 -4.05493164 25.30175781 C-4.05996711 23.52082733 -4.06679581 21.739901 -4.07543945 19.95898438 C-4.08753942 17.40233335 -4.09323609 14.84573688 -4.09765625 12.2890625 C-4.10281754 11.49005524 -4.10797882 10.69104797 -4.11329651 9.86782837 C-4.11387171 4.22774341 -4.11387171 4.22774341 -3 2 C-2.01 2 -1.02 2 0 2 C0 1.34 0 0.68 0 0 Z " fill="#DCDCDC" transform="translate(4,33)"/>
<path d="M0 0 C2 0 2 0 4 1 C5.125 3.9375 5.125 3.9375 6 7 C6.66 7.66 7.32 8.32 8 9 C4.30458414 9.95024979 1.69541586 9.95024979 -2 9 C-2.125 5.625 -2.125 5.625 -2 2 C-1.34 1.34 -0.68 0.68 0 0 Z " fill="#929292" transform="translate(160,57)"/>
<path d="M0 0 C2.4375 0.8125 2.4375 0.8125 5 2 C6.32676508 2.35858516 7.65835921 2.7018576 9 3 C9 3.66 9 4.32 9 5 C8.34 5 7.68 5 7 5 C7.33 6.98 7.66 8.96 8 11 C6.35 11.66 4.7 12.32 3 13 C3.33 11.68 3.66 10.36 4 9 C3.01 8.67 2.02 8.34 1 8 C2.32 6.68 3.64 5.36 5 4 C4.34 4 3.68 4 3 4 C3 3.34 3 2.68 3 2 C1.68 2 0.36 2 -1 2 C-0.67 3.65 -0.34 5.3 0 7 C-0.66 7 -1.32 7 -2 7 C-2.33 5.35 -2.66 3.7 -3 2 C-2.01 1.34 -1.02 0.68 0 0 Z " fill="#6C6C6C" transform="translate(144,10)"/>
<path d="M0 0 C3.0625 0.1875 3.0625 0.1875 6.0625 1.1875 C6.0625 1.8475 6.0625 2.5075 6.0625 3.1875 C4.4125 2.8575 2.7625 2.5275 1.0625 2.1875 C1.0625 3.8375 1.0625 5.4875 1.0625 7.1875 C-1.3125 7.8125 -1.3125 7.8125 -3.9375 8.1875 C-4.5975 7.5275 -5.2575 6.8675 -5.9375 6.1875 C-5.4282417 2.11343362 -4.29023194 0.27384459 0 0 Z " fill="#878787" transform="translate(40.9375,-0.1875)"/>
<path d="M0 0 C4.29 0 8.58 0 13 0 C13 1.65 13 3.3 13 5 C11.35 5 9.7 5 8 5 C7.67 4.01 7.34 3.02 7 2 C6.67 2.99 6.34 3.98 6 5 C3.69 5 1.38 5 -1 5 C-1 4.01 -1 3.02 -1 2 C1 3 1 3 2 4 C2 3.01 2 2.02 2 1 C1.34 0.67 0.68 0.34 0 0 Z " fill="#454545" transform="translate(54,113)"/>
<path d="M0 0 C2.0625 0.4375 2.0625 0.4375 4 1 C4 1.66 4 2.32 4 3 C5.65 3 7.3 3 9 3 C9 3.66 9 4.32 9 5 C7.68 5 6.36 5 5 5 C5.33 6.32 5.66 7.64 6 9 C3.0280615 7.87548273 0.66559313 6.77706209 -2 5 C-1.125 1.125 -1.125 1.125 0 0 Z " fill="#797979" transform="translate(19,18)"/>
<path d="M0 0 C1.32 0 2.64 0 4 0 C4 0.66 4 1.32 4 2 C4.99 2.33 5.98 2.66 7 3 C6.67 4.32 6.34 5.64 6 7 C3.69 7 1.38 7 -1 7 C-1.625 4.625 -1.625 4.625 -2 2 C-1.34 1.34 -0.68 0.68 0 0 Z " fill="#7C7C7C" transform="translate(104,111)"/>
<path d="M0 0 C6.15234375 -0.09765625 6.15234375 -0.09765625 8 0 C9 1 9 1 9.0625 3.5625 C9.041875 4.366875 9.02125 5.17125 9 6 C8.67 4.68 8.34 3.36 8 2 C7.34 2 6.68 2 6 2 C6 3.32 6 4.64 6 6 C4.02 6 2.04 6 0 6 C-1 3 -1 3 0 0 Z " fill="#787878" transform="translate(10,56)"/>
<path d="M0 0 C2.97 0.99 5.94 1.98 9 3 C8.67 4.65 8.34 6.3 8 8 C6.125 8.625 6.125 8.625 4 9 C3.34 8.34 2.68 7.68 2 7 C2 5.68 2 4.36 2 3 C1.34 2.67 0.68 2.34 0 2 C0 1.34 0 0.68 0 0 Z " fill="#7C7C7C" transform="translate(13,28)"/>
<path d="M0 0 C0.38133299 1.9914056 0.71325582 3.99279077 1 6 C0 7 0 7 -2.5625 7.0625 C-3.7690625 7.0315625 -3.7690625 7.0315625 -5 7 C-5.103125 6.360625 -5.20625 5.72125 -5.3125 5.0625 C-5.539375 4.381875 -5.76625 3.70125 -6 3 C-6.99 2.67 -7.98 2.34 -9 2 C-3.375 0 -3.375 0 0 0 Z " fill="#3E3E3E" transform="translate(18,75)"/>
<path d="M0 0 C2.0625 0.4375 2.0625 0.4375 4 1 C4.33 2.65 4.66 4.3 5 6 C3.02 6.99 3.02 6.99 1 8 C-0.98 5.69 -2.96 3.38 -5 1 C-3.68 1 -2.36 1 -1 1 C-0.67 0.67 -0.34 0.34 0 0 Z " fill="#7B7B7B" transform="translate(31,6)"/>
<path d="M0 0 C-0.99 0.66 -1.98 1.32 -3 2 C-2.34 2.66 -1.68 3.32 -1 4 C-1.33 4.99 -1.66 5.98 -2 7 C-2 6.34 -2 5.68 -2 5 C-2.66 5 -3.32 5 -4 5 C-4.33 5.99 -4.66 6.98 -5 8 C-5.99 7.67 -6.98 7.34 -8 7 C-8.33 5.02 -8.66 3.04 -9 1 C-5.57367167 -0.61798838 -3.61944899 -1.34053666 0 0 Z " fill="#767676" transform="translate(164,38)"/>
<path d="M0 0 C2.625 0.375 2.625 0.375 5 1 C5.042721 2.66611905 5.04063832 4.33382885 5 6 C4 7 4 7 1.4375 7.0625 C0.2309375 7.0315625 0.2309375 7.0315625 -1 7 C-1.625 4.625 -1.625 4.625 -2 2 C-1.34 1.34 -0.68 0.68 0 0 Z " fill="#888888" transform="translate(16,83)"/>
<path d="M0 0 C1.65 0.33 3.3 0.66 5 1 C5.33 2.65 5.66 4.3 6 6 C3.625 6.625 3.625 6.625 1 7 C0.34 6.34 -0.32 5.68 -1 5 C-0.625 2.375 -0.625 2.375 0 0 Z " fill="#878787" transform="translate(25,13)"/>
<path d="M0 0 C0.66 0 1.32 0 2 0 C2 1.65 2 3.3 2 5 C2.598125 4.505 3.19625 4.01 3.8125 3.5 C6 2 6 2 9 2 C9 3.65 9 5.3 9 7 C6.03 7 3.06 7 0 7 C0 4.69 0 2.38 0 0 Z " fill="#484848" transform="translate(43,111)"/>
<path d="M0 0 C1.67542976 0.28604898 3.34385343 0.61781233 5 1 C5.33 2.32 5.66 3.64 6 5 C2.71303767 5.79953138 1.28976808 6.09658936 -2 5 C-1.125 1.125 -1.125 1.125 0 0 Z " fill="#7E7E7E" transform="translate(158,72)"/>
<path d="M0 0 C2.33944736 0.28730055 4.6739143 0.61936779 7 1 C7 2.65 7 4.3 7 6 C4.69 6 2.38 6 0 6 C-0.38218767 4.34385343 -0.71395102 2.67542976 -1 1 C-0.67 0.67 -0.34 0.34 0 0 Z " fill="#4F4F4F" transform="translate(123,112)"/>
<path d="M0 0 C0.33 0.66 0.66 1.32 1 2 C2.32 2 3.64 2 5 2 C5.66 1.34 6.32 0.68 7 0 C7 2.31 7 4.62 7 7 C5.68 7 4.36 7 3 7 C3 5.68 3 4.36 3 3 C2.34 3 1.68 3 1 3 C0.67 4.32 0.34 5.64 0 7 C0 4.69 0 2.38 0 0 Z " fill="#3D3D3D" transform="translate(78,111)"/>
<path d="M0 0 C2.31 0 4.62 0 7 0 C6.67 1.98 6.34 3.96 6 6 C5.01 6 4.02 6 3 6 C0 2.66666667 0 2.66666667 0 0 Z " fill="#707070" transform="translate(11,46)"/>
<path d="M0 0 C1.32 0 2.64 0 4 0 C4 0.66 4 1.32 4 2 C4.66 2 5.32 2 6 2 C5.67 2.99 5.34 3.98 5 5 C4.01 5.33 3.02 5.66 2 6 C1.34 5.34 0.68 4.68 0 4 C0 2.68 0 1.36 0 0 Z " fill="#EFEFEF" transform="translate(143,12)"/>
<path d="M0 0 C2.0625 0.4375 2.0625 0.4375 4 1 C4.33 2.65 4.66 4.3 5 6 C4.34 5.34 3.68 4.68 3 4 C3 4.99 3 5.98 3 7 C2.34 7 1.68 7 1 7 C0.67 5.68 0.34 4.36 0 3 C-0.66 3.66 -1.32 4.32 -2 5 C-1.125 1.125 -1.125 1.125 0 0 Z " fill="#515151" transform="translate(152,90)"/>
<path d="M0 0 C1.2065625 0.0309375 1.2065625 0.0309375 2.4375 0.0625 C2.4375 0.7225 2.4375 1.3825 2.4375 2.0625 C0.7875 2.0625 -0.8625 2.0625 -2.5625 2.0625 C-2.2325 2.7225 -1.9025 3.3825 -1.5625 4.0625 C0.96483235 4.71805119 0.96483235 4.71805119 3.4375 5.0625 C3.4375 5.3925 3.4375 5.7225 3.4375 6.0625 C1.1275 6.3925 -1.1825 6.7225 -3.5625 7.0625 C-3.60504356 5.06295254 -3.60330783 3.06208364 -3.5625 1.0625 C-2.5625 0.0625 -2.5625 0.0625 0 0 Z " fill="#4D4D4D" transform="translate(13.5625,63.9375)"/>
<path d="M0 0 C0 2.70254461 -0.03430669 4.50529228 -1 7 C-3.58152302 8.72101535 -4.84918025 9 -8 9 C-5.36 6.03 -2.72 3.06 0 0 Z " fill="#DCDCDC" transform="translate(158,114)"/>
<path d="M0 0 C0.66 0 1.32 0 2 0 C2.33 0.66 2.66 1.32 3 2 C3.66 2.33 4.32 2.66 5 3 C5 4.32 5 5.64 5 7 C3.35 7 1.7 7 0 7 C0 4.69 0 2.38 0 0 Z " fill="#3A3A3A" transform="translate(92,111)"/>
<path d="M0 0 C2.31 0 4.62 0 7 0 C6.34 1.65 5.68 3.3 5 5 C4.34 4.67 3.68 4.34 3 4 C3.33 3.34 3.66 2.68 4 2 C2.35 2.33 0.7 2.66 -1 3 C-0.67 2.01 -0.34 1.02 0 0 Z " fill="#8E8E8E" transform="translate(128,0)"/>
<path d="M0 0 C2.33944736 0.28730055 4.6739143 0.61936779 7 1 C6.38125 1.144375 5.7625 1.28875 5.125 1.4375 C2.96741678 1.93152225 2.96741678 1.93152225 1 3 C2.32 3.99 3.64 4.98 5 6 C3.35 6 1.7 6 0 6 C-0.38218767 4.34385343 -0.71395102 2.67542976 -1 1 C-0.67 0.67 -0.34 0.34 0 0 Z " fill="#464646" transform="translate(13,38)"/>
<path d="M0 0 C2.64 0 5.28 0 8 0 C6.68 1.65 5.36 3.3 4 5 C2.68 3.35 1.36 1.7 0 0 Z " fill="#E8E8E8" transform="translate(150,0)"/>
<path d="M0 0 C1.4540625 0.0309375 1.4540625 0.0309375 2.9375 0.0625 C1.2875 1.7125 -0.3625 3.3625 -2.0625 5.0625 C-2.7225 3.7425 -3.3825 2.4225 -4.0625 1.0625 C-3.0625 0.0625 -3.0625 0.0625 0 0 Z " fill="#E6E6E6" transform="translate(23.0625,-0.0625)"/>
<path d="M0 0 C1.98 0.495 1.98 0.495 4 1 C3.67 1.99 3.34 2.98 3 4 C1.68 4 0.36 4 -1 4 C-0.67 2.68 -0.34 1.36 0 0 Z " fill="#DFDFDF" transform="translate(14,77)"/>
</svg>
